<svg width="30" height="28" viewBox="0 0 30 28" fill="none" xmlns="http://www.w3.org/2000/svg">
  <defs>
    <!-- This clipPath keeps only the left half visible -->
    <clipPath id="half">
      <rect x="0" y="0" width="15" height="28" />
    </clipPath>
  </defs>
  <!-- Full star outline (stroke only) -->
  <path
    d="M18.1299 10.4424L18.1865 10.6143H28.4971L20.3018 16.5684L20.1553 16.6748L20.2109 16.8477L23.3408 26.4795L15.1465 20.5273L15 20.4209L14.8535 20.5273L6.6582 26.4795L9.78906 16.8477L9.84473 16.6748L9.69824 16.5684L1.50293 10.6143H11.8135L11.8701 10.4424L15 0.807617L18.1299 10.4424Z"
    fill="none"
    stroke="#72723E"
    stroke-width="0.5"
  />
  <!-- Left half (filled) -->
  <path
    d="M18.1299 10.4424L18.1865 10.6143H28.4971L20.3018 16.5684L20.1553 16.6748L20.2109 16.8477L23.3408 26.4795L15.1465 20.5273L15 20.4209L14.8535 20.5273L6.6582 26.4795L9.78906 16.8477L9.84473 16.6748L9.69824 16.5684L1.50293 10.6143H11.8135L11.8701 10.4424L15 0.807617L18.1299 10.4424Z"
    fill="#F8EE9B"
    clip-path="url(#half)"
  />
</svg>
