<svg width="25" height="25" viewBox="0 0 25 25" fill="none" xmlns="http://www.w3.org/2000/svg">
<path d="M21.7083 4.80209C21.1763 4.26981 20.5446 3.84756 19.8493 3.55947C19.1541 3.27139 18.4088 3.12311 17.6562 3.12311C16.9037 3.12311 16.1584 3.27139 15.4632 3.55947C14.7679 3.84756 14.1362 4.26981 13.6042 4.80209L12.5 5.90626L11.3958 4.80209C10.3212 3.72741 8.86357 3.12366 7.34375 3.12366C5.82392 3.12366 4.36634 3.72741 3.29166 4.80209C2.21698 5.87677 1.61324 7.33435 1.61324 8.85418C1.61324 10.374 2.21698 11.8316 3.29166 12.9063L12.5 22.1146L21.7083 12.9063C22.2406 12.3742 22.6629 11.7425 22.9509 11.0473C23.239 10.352 23.3873 9.60677 23.3873 8.85418C23.3873 8.10158 23.239 7.35637 22.9509 6.6611C22.6629 5.96583 22.2406 5.33413 21.7083 4.80209Z" stroke="#1E1E1E" stroke-width="0.5" stroke-linecap="round" stroke-linejoin="round"/>
</svg>
