<svg width="900" height="900" viewBox="0 0 900 900" fill="none" xmlns="http://www.w3.org/2000/svg">
<circle cx="450" cy="450" r="450" fill="#E5BB7C"/>
<mask id="path-2-outside-1_41_30" maskUnits="userSpaceOnUse" x="63" y="379" width="761" height="101" fill="black">
<rect fill="white" x="63" y="379" width="761" height="101"/>
<path d="M145.41 476.344C133.965 476.344 123.457 474.312 113.887 470.25C111.895 472.242 109.414 473.551 106.445 474.176C103.516 474.84 99.5898 475.172 94.668 475.172C89.7852 475.172 85.0391 474.605 80.4297 473.473C75.8203 472.34 72.168 470.953 69.4727 469.312C66.7383 467.672 65.3711 466.07 65.3711 464.508C65.3711 463.609 65.7617 462.887 66.543 462.34C67.3242 461.793 68.2227 461.52 69.2383 461.52C72.832 461.52 75.4883 460.953 77.207 459.82C78.9648 458.648 80.6445 456.5 82.2461 453.375C83.8867 450.25 85.4688 446.656 86.9922 442.594C88.5156 438.492 89.9219 434.664 91.2109 431.109C92.5391 427.555 94.0234 423.961 95.6641 420.328C99.2969 412.398 103.848 407.125 109.316 404.508C111.934 403.258 115.352 402.301 119.57 401.637C123.789 400.934 127.09 400.582 129.473 400.582C131.895 400.582 133.457 400.621 134.16 400.699C134.902 400.738 135.645 400.855 136.387 401.051C137.871 401.441 138.613 402.262 138.613 403.512C138.613 404.371 138.438 405.172 138.086 405.914C137.773 406.617 136.895 408.141 135.449 410.484C134.004 412.828 132.09 417.73 129.707 425.191C139.238 424.605 146.523 422.633 151.562 419.273C156.602 415.875 159.121 411.539 159.121 406.266C159.121 399.117 153.066 395.055 140.957 394.078C138.496 393.883 134.902 393.785 130.176 393.785C125.449 393.785 120.195 394.352 114.414 395.484C108.633 396.578 104.102 397.789 100.82 399.117C97.5781 400.445 94.6484 401.676 92.0312 402.809C89.4141 403.902 87.7344 404.449 86.9922 404.449C84.9609 404.449 83.9453 403.785 83.9453 402.457C83.9453 401.09 85.2148 399.469 87.7539 397.594C90.293 395.719 93.7891 393.863 98.2422 392.027C102.734 390.191 107.695 388.492 113.125 386.93C125.391 383.414 138.066 381.656 151.152 381.656C164.238 381.656 174.16 383.707 180.918 387.809C187.715 391.871 191.113 397.262 191.113 403.98C191.113 410.699 187.734 416.285 180.977 420.738C174.258 425.191 165.02 427.652 153.262 428.121C160.801 428.199 167.734 430.016 174.062 433.57C177.109 435.25 179.59 437.457 181.504 440.191C183.418 442.926 184.375 446.09 184.375 449.684C184.375 453.277 183.613 456.656 182.09 459.82C180.605 462.945 178.613 465.523 176.113 467.555C173.652 469.586 170.703 471.266 167.266 472.594C160.977 475.094 153.691 476.344 145.41 476.344ZM128.066 430.348C127.324 432.809 125.859 437.789 123.672 445.289C121.484 452.75 119.961 457.75 119.102 460.289C118.242 462.789 117.793 464.078 117.754 464.156C119.004 464.312 120.996 464.391 123.73 464.391C126.504 464.391 129.59 464.02 132.988 463.277C136.426 462.496 139.492 461.324 142.188 459.762C144.922 458.199 147.051 456.09 148.574 453.434C150.137 450.777 150.918 447.555 150.918 443.766C150.918 439.977 148.711 436.832 144.297 434.332C139.883 431.832 134.473 430.504 128.066 430.348ZM204.59 470.074C197.246 465.66 193.574 458.961 193.574 449.977C193.574 445.289 194.531 440.895 196.445 436.793C198.398 432.652 201.055 429.078 204.414 426.07C207.812 423.062 211.758 420.484 216.25 418.336C225.234 414 235.527 411.832 247.129 411.832C269.941 411.832 282.266 419.059 284.102 433.512C286.836 434.41 289.648 434.859 292.539 434.859C295.469 434.859 297.91 434.645 299.863 434.215C301.816 433.785 303.652 433.141 305.371 432.281C307.129 431.422 308.379 430.992 309.121 430.992C310.605 430.992 311.348 431.715 311.348 433.16C311.348 434.605 310.195 436.109 307.891 437.672C303.555 440.641 297.812 442.125 290.664 442.125C287.969 442.125 285.781 441.988 284.102 441.715C282.852 451.559 277.773 459.742 268.867 466.266C264.609 469.391 259.375 471.852 253.164 473.648C246.992 475.445 240.586 476.344 233.945 476.344C227.344 476.344 221.68 475.816 216.953 474.762C212.227 473.746 208.105 472.184 204.59 470.074ZM225.859 455.133C225.859 462.359 228.496 465.973 233.77 465.973C237.129 465.973 240.254 464.137 243.145 460.465C246.074 456.793 248.34 452.242 249.941 446.812C251.582 441.383 252.402 435.855 252.402 430.23C252.402 424.566 250.43 421.734 246.484 421.734C243.047 421.734 239.707 423.355 236.465 426.598C233.262 429.84 230.684 434.059 228.73 439.254C226.816 444.41 225.859 449.703 225.859 455.133ZM325.059 469.43C313.652 473.297 306.367 475.23 303.203 475.23C300.078 475.23 297.539 474.586 295.586 473.297C293.672 471.969 292.715 470.328 292.715 468.375C292.715 466.891 295.273 459.039 300.391 444.82C310.078 417.75 314.922 400.27 314.922 392.379L314.863 390.152C314.863 388.199 316.758 387.223 320.547 387.223H335.84L347.617 387.047C348.633 387.047 349.395 387.359 349.902 387.984C350.41 388.57 350.664 389.234 350.664 389.977C350.664 393.609 347.07 404.977 339.883 424.078L339.941 424.02C343.34 420.152 347.441 417.164 352.246 415.055C357.09 412.906 362.305 411.832 367.891 411.832C384.18 411.832 392.324 419.449 392.324 434.684C392.324 440.543 390.879 446.188 387.988 451.617C385.098 457.047 381.172 461.773 376.211 465.797C389.023 464.664 399.043 462.125 406.27 458.18C407.324 457.594 408.242 457.301 409.023 457.301C410.547 457.301 411.309 457.926 411.309 459.176C411.309 460.387 410.625 461.5 409.258 462.516C404.141 466.07 396.25 469.215 385.586 471.949C374.922 474.684 363.477 476.07 351.25 476.109C349.297 476.266 347.148 476.344 344.805 476.344C342.461 476.344 339.219 475.719 335.078 474.469C330.977 473.258 327.637 471.578 325.059 469.43ZM351.484 426.715C344.141 426.715 338.008 432.34 333.086 443.59C330.82 448.746 329.688 452.926 329.688 456.129C329.688 459.332 330.215 461.539 331.27 462.75C332.363 463.961 334.473 464.566 337.598 464.566C340.762 464.566 344.16 463.121 347.793 460.23C351.465 457.301 354.414 453.629 356.641 449.215C358.867 444.801 359.98 440.836 359.98 437.32C359.98 433.766 359.199 431.109 357.637 429.352C356.074 427.594 354.023 426.715 351.484 426.715ZM446.113 461.461C453.457 461.461 459.59 455.836 464.512 444.586C466.777 439.43 467.91 435.25 467.91 432.047C467.91 428.844 467.363 426.637 466.27 425.426C465.215 424.215 463.105 423.609 459.941 423.609C456.816 423.609 453.418 425.074 449.746 428.004C446.113 430.895 443.184 434.547 440.957 438.961C438.73 443.375 437.617 447.359 437.617 450.914C437.617 454.43 438.398 457.066 439.961 458.824C441.523 460.582 443.574 461.461 446.113 461.461ZM476.582 411.832L503.418 413.062C504.434 413.062 505.195 413.375 505.703 414C506.211 414.586 506.465 415.25 506.465 415.992C506.465 418.844 505.273 423.395 502.891 429.645C500.547 435.855 498.184 442.027 495.801 448.16C493.457 454.254 492.285 458.297 492.285 460.289C492.285 462.242 492.578 463.492 493.164 464.039C493.789 464.586 494.961 464.859 496.68 464.859C498.398 464.859 501.523 464.039 506.055 462.398C510.625 460.719 513.711 459.449 515.312 458.59C516.953 457.73 518.203 457.301 519.062 457.301C520.586 457.301 521.348 457.984 521.348 459.352C521.348 462.242 515.488 466.031 503.77 470.719C499.824 472.32 495.059 473.648 489.473 474.703C483.926 475.797 478.281 476.344 472.539 476.344C462.969 476.344 457.207 473.297 455.254 467.203C449.16 473.297 440.957 476.344 430.645 476.344C423.574 476.344 417.598 474.645 412.715 471.246C407.402 467.535 404.746 461.695 404.746 453.727C404.746 445.328 407.227 437.594 412.188 430.523C417.617 422.672 424.883 417.262 433.984 414.293C439.023 412.652 444.434 411.832 450.215 411.832C459.082 411.832 465.977 414.02 470.898 418.395C470.938 418.16 470.957 417.789 470.957 417.281L470.898 414.762C470.898 412.809 472.793 411.832 476.582 411.832ZM628.75 457.301C630.508 457.301 631.387 458.102 631.387 459.703C631.387 460.836 630.566 462.008 628.926 463.219C624.551 466.422 618.008 469.41 609.297 472.184C600.625 474.957 593.047 476.344 586.562 476.344C580.078 476.344 575.293 475.66 572.207 474.293C569.16 472.965 567.051 470.602 565.879 467.203C563.613 469.508 560.352 471.617 556.094 473.531C551.836 475.406 547.324 476.344 542.559 476.344C537.832 476.344 533.965 475.914 530.957 475.055C527.949 474.234 525.215 472.965 522.754 471.246C520.293 469.527 518.34 467.184 516.895 464.215C515.488 461.207 514.785 457.711 514.785 453.727C514.785 449.742 515.391 445.777 516.602 441.832C517.812 437.887 519.668 434.117 522.168 430.523C524.707 426.891 527.734 423.688 531.25 420.914C534.766 418.141 539.023 415.934 544.023 414.293C549.062 412.652 554.473 411.832 560.254 411.832C569.746 411.832 577.637 414.195 583.926 418.922C586.113 405.016 587.207 395.934 587.207 391.676L587.148 389.977C587.148 388.023 589.043 387.047 592.832 387.047L619.082 388.277C620.02 388.277 620.762 388.57 621.309 389.156C621.855 389.703 622.129 390.328 622.129 391.031C622.129 397.125 618.906 409.625 612.461 428.531C606.016 447.398 602.793 457.75 602.793 459.586C602.793 461.422 603.047 462.73 603.555 463.512C604.102 464.293 605.215 464.684 606.895 464.684C608.574 464.684 611.465 463.98 615.566 462.574C619.668 461.168 622.754 459.938 624.824 458.883C626.895 457.828 628.203 457.301 628.75 457.301ZM556.152 461.461C563.496 461.461 569.629 455.836 574.551 444.586C577.363 439.195 578.77 434.43 578.77 430.289C578.77 428.023 578.223 426.285 577.129 425.074C576.074 423.863 573.945 423.258 570.742 423.258C567.578 423.258 564.102 424.742 560.312 427.711C556.523 430.68 553.457 434.41 551.113 438.902C548.809 443.355 547.656 447.359 547.656 450.914C547.656 454.43 548.438 457.066 550 458.824C551.562 460.582 553.613 461.461 556.152 461.461ZM719.453 457.301C720.82 457.301 721.504 457.945 721.504 459.234C721.504 460.484 720.566 461.656 718.691 462.75C716.855 463.805 714.57 464.957 711.836 466.207C709.102 467.418 705.332 468.863 700.527 470.543C689.473 474.41 676.992 476.344 663.086 476.344C636.68 476.344 623.477 468.219 623.477 451.969C623.477 444.039 625.977 437.008 630.977 430.875C636.016 424.703 642.754 419.996 651.191 416.754C659.629 413.473 668.828 411.832 678.789 411.832C688.75 411.832 696.035 413.375 700.645 416.461C705.293 419.547 707.617 423.785 707.617 429.176C707.617 434.723 705.391 439.254 700.938 442.77C696.523 446.285 690.645 448.902 683.301 450.621C675.918 452.34 667.461 453.551 657.93 454.254C658.555 460.309 662.891 464.078 670.938 465.562C673.008 465.914 675.195 466.09 677.5 466.09C686.641 466.09 699.824 463.336 717.051 457.828C718.105 457.477 718.906 457.301 719.453 457.301ZM657.988 447.809C664.785 445.934 670.156 443.062 674.102 439.195C678.047 435.328 680.02 430.66 680.02 425.191C680.02 423.746 679.551 422.594 678.613 421.734C677.676 420.875 676.25 420.445 674.336 420.445C672.461 420.445 670.488 421.266 668.418 422.906C666.387 424.547 664.668 426.695 663.262 429.352C660.293 434.859 658.535 441.012 657.988 447.809ZM771.719 422.203C773.398 425.602 774.688 428.668 775.586 431.402C781.914 425.191 787.402 420.289 792.051 416.695C796.738 413.062 800.508 411.246 803.359 411.246C805.391 411.246 807.188 412.887 808.75 416.168C810.352 419.41 811.152 423.141 811.152 427.359C811.152 428.141 810.84 429.02 810.215 429.996C809.629 430.934 808.75 431.539 807.578 431.812C806.406 432.047 803.945 432.164 800.195 432.164C796.445 432.164 792.949 432.691 789.707 433.746C786.504 434.762 782.871 436.812 778.809 439.898C782.988 450.992 786.582 458.395 789.59 462.105C791.113 464.059 793.125 465.035 795.625 465.035C798.125 465.035 801.387 464.371 805.41 463.043C809.434 461.715 812.5 460.426 814.609 459.176C816.719 457.926 818.184 457.301 819.004 457.301C820.645 457.301 821.465 458.023 821.465 459.469C821.465 460.445 820.625 461.676 818.945 463.16C813.281 468.121 807.012 471.676 800.137 473.824C793.262 475.973 785.586 477.047 777.109 477.047C764.688 477.047 756.406 474.43 752.266 469.195C749.922 466.305 747.695 462.379 745.586 457.418C739.414 463.277 733.926 467.906 729.121 471.305C724.316 474.703 720.215 476.402 716.816 476.402C714.316 476.402 712.207 474.801 710.488 471.598C708.809 468.355 707.969 465.016 707.969 461.578C707.969 458.141 708.848 456.344 710.605 456.188C711.621 456.07 713.457 455.973 716.113 455.895C718.809 455.816 721.562 455.68 724.375 455.484C731.211 455.016 737.207 452.828 742.363 448.922C741.973 447.75 741.328 445.797 740.43 443.062C739.57 440.328 738.906 438.297 738.438 436.969C735.977 430.016 733.691 425.992 731.582 424.898C730.566 424.352 729.102 424.078 727.188 424.078C725.273 424.078 723.398 424.254 721.562 424.605C719.727 424.957 718.594 425.133 718.164 425.133C716.68 425.133 715.938 424.43 715.938 423.023C715.938 421.617 717.5 420.055 720.625 418.336C723.75 416.578 727.988 415.055 733.34 413.766C738.73 412.477 743.359 411.832 747.227 411.832C751.094 411.832 753.945 411.93 755.781 412.125C757.617 412.281 759.258 412.594 760.703 413.062C762.148 413.492 763.418 413.961 764.512 414.469C765.605 414.938 766.602 415.621 767.5 416.52C768.398 417.379 769.16 418.219 769.785 419.039C770.41 419.82 771.055 420.875 771.719 422.203Z"/>
</mask>
<g filter="url(#filter0_i_41_30)">
<path d="M145.41 476.344C133.965 476.344 123.457 474.312 113.887 470.25C111.895 472.242 109.414 473.551 106.445 474.176C103.516 474.84 99.5898 475.172 94.668 475.172C89.7852 475.172 85.0391 474.605 80.4297 473.473C75.8203 472.34 72.168 470.953 69.4727 469.312C66.7383 467.672 65.3711 466.07 65.3711 464.508C65.3711 463.609 65.7617 462.887 66.543 462.34C67.3242 461.793 68.2227 461.52 69.2383 461.52C72.832 461.52 75.4883 460.953 77.207 459.82C78.9648 458.648 80.6445 456.5 82.2461 453.375C83.8867 450.25 85.4688 446.656 86.9922 442.594C88.5156 438.492 89.9219 434.664 91.2109 431.109C92.5391 427.555 94.0234 423.961 95.6641 420.328C99.2969 412.398 103.848 407.125 109.316 404.508C111.934 403.258 115.352 402.301 119.57 401.637C123.789 400.934 127.09 400.582 129.473 400.582C131.895 400.582 133.457 400.621 134.16 400.699C134.902 400.738 135.645 400.855 136.387 401.051C137.871 401.441 138.613 402.262 138.613 403.512C138.613 404.371 138.438 405.172 138.086 405.914C137.773 406.617 136.895 408.141 135.449 410.484C134.004 412.828 132.09 417.73 129.707 425.191C139.238 424.605 146.523 422.633 151.562 419.273C156.602 415.875 159.121 411.539 159.121 406.266C159.121 399.117 153.066 395.055 140.957 394.078C138.496 393.883 134.902 393.785 130.176 393.785C125.449 393.785 120.195 394.352 114.414 395.484C108.633 396.578 104.102 397.789 100.82 399.117C97.5781 400.445 94.6484 401.676 92.0312 402.809C89.4141 403.902 87.7344 404.449 86.9922 404.449C84.9609 404.449 83.9453 403.785 83.9453 402.457C83.9453 401.09 85.2148 399.469 87.7539 397.594C90.293 395.719 93.7891 393.863 98.2422 392.027C102.734 390.191 107.695 388.492 113.125 386.93C125.391 383.414 138.066 381.656 151.152 381.656C164.238 381.656 174.16 383.707 180.918 387.809C187.715 391.871 191.113 397.262 191.113 403.98C191.113 410.699 187.734 416.285 180.977 420.738C174.258 425.191 165.02 427.652 153.262 428.121C160.801 428.199 167.734 430.016 174.062 433.57C177.109 435.25 179.59 437.457 181.504 440.191C183.418 442.926 184.375 446.09 184.375 449.684C184.375 453.277 183.613 456.656 182.09 459.82C180.605 462.945 178.613 465.523 176.113 467.555C173.652 469.586 170.703 471.266 167.266 472.594C160.977 475.094 153.691 476.344 145.41 476.344ZM128.066 430.348C127.324 432.809 125.859 437.789 123.672 445.289C121.484 452.75 119.961 457.75 119.102 460.289C118.242 462.789 117.793 464.078 117.754 464.156C119.004 464.312 120.996 464.391 123.73 464.391C126.504 464.391 129.59 464.02 132.988 463.277C136.426 462.496 139.492 461.324 142.188 459.762C144.922 458.199 147.051 456.09 148.574 453.434C150.137 450.777 150.918 447.555 150.918 443.766C150.918 439.977 148.711 436.832 144.297 434.332C139.883 431.832 134.473 430.504 128.066 430.348ZM204.59 470.074C197.246 465.66 193.574 458.961 193.574 449.977C193.574 445.289 194.531 440.895 196.445 436.793C198.398 432.652 201.055 429.078 204.414 426.07C207.812 423.062 211.758 420.484 216.25 418.336C225.234 414 235.527 411.832 247.129 411.832C269.941 411.832 282.266 419.059 284.102 433.512C286.836 434.41 289.648 434.859 292.539 434.859C295.469 434.859 297.91 434.645 299.863 434.215C301.816 433.785 303.652 433.141 305.371 432.281C307.129 431.422 308.379 430.992 309.121 430.992C310.605 430.992 311.348 431.715 311.348 433.16C311.348 434.605 310.195 436.109 307.891 437.672C303.555 440.641 297.812 442.125 290.664 442.125C287.969 442.125 285.781 441.988 284.102 441.715C282.852 451.559 277.773 459.742 268.867 466.266C264.609 469.391 259.375 471.852 253.164 473.648C246.992 475.445 240.586 476.344 233.945 476.344C227.344 476.344 221.68 475.816 216.953 474.762C212.227 473.746 208.105 472.184 204.59 470.074ZM225.859 455.133C225.859 462.359 228.496 465.973 233.77 465.973C237.129 465.973 240.254 464.137 243.145 460.465C246.074 456.793 248.34 452.242 249.941 446.812C251.582 441.383 252.402 435.855 252.402 430.23C252.402 424.566 250.43 421.734 246.484 421.734C243.047 421.734 239.707 423.355 236.465 426.598C233.262 429.84 230.684 434.059 228.73 439.254C226.816 444.41 225.859 449.703 225.859 455.133ZM325.059 469.43C313.652 473.297 306.367 475.23 303.203 475.23C300.078 475.23 297.539 474.586 295.586 473.297C293.672 471.969 292.715 470.328 292.715 468.375C292.715 466.891 295.273 459.039 300.391 444.82C310.078 417.75 314.922 400.27 314.922 392.379L314.863 390.152C314.863 388.199 316.758 387.223 320.547 387.223H335.84L347.617 387.047C348.633 387.047 349.395 387.359 349.902 387.984C350.41 388.57 350.664 389.234 350.664 389.977C350.664 393.609 347.07 404.977 339.883 424.078L339.941 424.02C343.34 420.152 347.441 417.164 352.246 415.055C357.09 412.906 362.305 411.832 367.891 411.832C384.18 411.832 392.324 419.449 392.324 434.684C392.324 440.543 390.879 446.188 387.988 451.617C385.098 457.047 381.172 461.773 376.211 465.797C389.023 464.664 399.043 462.125 406.27 458.18C407.324 457.594 408.242 457.301 409.023 457.301C410.547 457.301 411.309 457.926 411.309 459.176C411.309 460.387 410.625 461.5 409.258 462.516C404.141 466.07 396.25 469.215 385.586 471.949C374.922 474.684 363.477 476.07 351.25 476.109C349.297 476.266 347.148 476.344 344.805 476.344C342.461 476.344 339.219 475.719 335.078 474.469C330.977 473.258 327.637 471.578 325.059 469.43ZM351.484 426.715C344.141 426.715 338.008 432.34 333.086 443.59C330.82 448.746 329.688 452.926 329.688 456.129C329.688 459.332 330.215 461.539 331.27 462.75C332.363 463.961 334.473 464.566 337.598 464.566C340.762 464.566 344.16 463.121 347.793 460.23C351.465 457.301 354.414 453.629 356.641 449.215C358.867 444.801 359.98 440.836 359.98 437.32C359.98 433.766 359.199 431.109 357.637 429.352C356.074 427.594 354.023 426.715 351.484 426.715ZM446.113 461.461C453.457 461.461 459.59 455.836 464.512 444.586C466.777 439.43 467.91 435.25 467.91 432.047C467.91 428.844 467.363 426.637 466.27 425.426C465.215 424.215 463.105 423.609 459.941 423.609C456.816 423.609 453.418 425.074 449.746 428.004C446.113 430.895 443.184 434.547 440.957 438.961C438.73 443.375 437.617 447.359 437.617 450.914C437.617 454.43 438.398 457.066 439.961 458.824C441.523 460.582 443.574 461.461 446.113 461.461ZM476.582 411.832L503.418 413.062C504.434 413.062 505.195 413.375 505.703 414C506.211 414.586 506.465 415.25 506.465 415.992C506.465 418.844 505.273 423.395 502.891 429.645C500.547 435.855 498.184 442.027 495.801 448.16C493.457 454.254 492.285 458.297 492.285 460.289C492.285 462.242 492.578 463.492 493.164 464.039C493.789 464.586 494.961 464.859 496.68 464.859C498.398 464.859 501.523 464.039 506.055 462.398C510.625 460.719 513.711 459.449 515.312 458.59C516.953 457.73 518.203 457.301 519.062 457.301C520.586 457.301 521.348 457.984 521.348 459.352C521.348 462.242 515.488 466.031 503.77 470.719C499.824 472.32 495.059 473.648 489.473 474.703C483.926 475.797 478.281 476.344 472.539 476.344C462.969 476.344 457.207 473.297 455.254 467.203C449.16 473.297 440.957 476.344 430.645 476.344C423.574 476.344 417.598 474.645 412.715 471.246C407.402 467.535 404.746 461.695 404.746 453.727C404.746 445.328 407.227 437.594 412.188 430.523C417.617 422.672 424.883 417.262 433.984 414.293C439.023 412.652 444.434 411.832 450.215 411.832C459.082 411.832 465.977 414.02 470.898 418.395C470.938 418.16 470.957 417.789 470.957 417.281L470.898 414.762C470.898 412.809 472.793 411.832 476.582 411.832ZM628.75 457.301C630.508 457.301 631.387 458.102 631.387 459.703C631.387 460.836 630.566 462.008 628.926 463.219C624.551 466.422 618.008 469.41 609.297 472.184C600.625 474.957 593.047 476.344 586.562 476.344C580.078 476.344 575.293 475.66 572.207 474.293C569.16 472.965 567.051 470.602 565.879 467.203C563.613 469.508 560.352 471.617 556.094 473.531C551.836 475.406 547.324 476.344 542.559 476.344C537.832 476.344 533.965 475.914 530.957 475.055C527.949 474.234 525.215 472.965 522.754 471.246C520.293 469.527 518.34 467.184 516.895 464.215C515.488 461.207 514.785 457.711 514.785 453.727C514.785 449.742 515.391 445.777 516.602 441.832C517.812 437.887 519.668 434.117 522.168 430.523C524.707 426.891 527.734 423.688 531.25 420.914C534.766 418.141 539.023 415.934 544.023 414.293C549.062 412.652 554.473 411.832 560.254 411.832C569.746 411.832 577.637 414.195 583.926 418.922C586.113 405.016 587.207 395.934 587.207 391.676L587.148 389.977C587.148 388.023 589.043 387.047 592.832 387.047L619.082 388.277C620.02 388.277 620.762 388.57 621.309 389.156C621.855 389.703 622.129 390.328 622.129 391.031C622.129 397.125 618.906 409.625 612.461 428.531C606.016 447.398 602.793 457.75 602.793 459.586C602.793 461.422 603.047 462.73 603.555 463.512C604.102 464.293 605.215 464.684 606.895 464.684C608.574 464.684 611.465 463.98 615.566 462.574C619.668 461.168 622.754 459.938 624.824 458.883C626.895 457.828 628.203 457.301 628.75 457.301ZM556.152 461.461C563.496 461.461 569.629 455.836 574.551 444.586C577.363 439.195 578.77 434.43 578.77 430.289C578.77 428.023 578.223 426.285 577.129 425.074C576.074 423.863 573.945 423.258 570.742 423.258C567.578 423.258 564.102 424.742 560.312 427.711C556.523 430.68 553.457 434.41 551.113 438.902C548.809 443.355 547.656 447.359 547.656 450.914C547.656 454.43 548.438 457.066 550 458.824C551.562 460.582 553.613 461.461 556.152 461.461ZM719.453 457.301C720.82 457.301 721.504 457.945 721.504 459.234C721.504 460.484 720.566 461.656 718.691 462.75C716.855 463.805 714.57 464.957 711.836 466.207C709.102 467.418 705.332 468.863 700.527 470.543C689.473 474.41 676.992 476.344 663.086 476.344C636.68 476.344 623.477 468.219 623.477 451.969C623.477 444.039 625.977 437.008 630.977 430.875C636.016 424.703 642.754 419.996 651.191 416.754C659.629 413.473 668.828 411.832 678.789 411.832C688.75 411.832 696.035 413.375 700.645 416.461C705.293 419.547 707.617 423.785 707.617 429.176C707.617 434.723 705.391 439.254 700.938 442.77C696.523 446.285 690.645 448.902 683.301 450.621C675.918 452.34 667.461 453.551 657.93 454.254C658.555 460.309 662.891 464.078 670.938 465.562C673.008 465.914 675.195 466.09 677.5 466.09C686.641 466.09 699.824 463.336 717.051 457.828C718.105 457.477 718.906 457.301 719.453 457.301ZM657.988 447.809C664.785 445.934 670.156 443.062 674.102 439.195C678.047 435.328 680.02 430.66 680.02 425.191C680.02 423.746 679.551 422.594 678.613 421.734C677.676 420.875 676.25 420.445 674.336 420.445C672.461 420.445 670.488 421.266 668.418 422.906C666.387 424.547 664.668 426.695 663.262 429.352C660.293 434.859 658.535 441.012 657.988 447.809ZM771.719 422.203C773.398 425.602 774.688 428.668 775.586 431.402C781.914 425.191 787.402 420.289 792.051 416.695C796.738 413.062 800.508 411.246 803.359 411.246C805.391 411.246 807.188 412.887 808.75 416.168C810.352 419.41 811.152 423.141 811.152 427.359C811.152 428.141 810.84 429.02 810.215 429.996C809.629 430.934 808.75 431.539 807.578 431.812C806.406 432.047 803.945 432.164 800.195 432.164C796.445 432.164 792.949 432.691 789.707 433.746C786.504 434.762 782.871 436.812 778.809 439.898C782.988 450.992 786.582 458.395 789.59 462.105C791.113 464.059 793.125 465.035 795.625 465.035C798.125 465.035 801.387 464.371 805.41 463.043C809.434 461.715 812.5 460.426 814.609 459.176C816.719 457.926 818.184 457.301 819.004 457.301C820.645 457.301 821.465 458.023 821.465 459.469C821.465 460.445 820.625 461.676 818.945 463.16C813.281 468.121 807.012 471.676 800.137 473.824C793.262 475.973 785.586 477.047 777.109 477.047C764.688 477.047 756.406 474.43 752.266 469.195C749.922 466.305 747.695 462.379 745.586 457.418C739.414 463.277 733.926 467.906 729.121 471.305C724.316 474.703 720.215 476.402 716.816 476.402C714.316 476.402 712.207 474.801 710.488 471.598C708.809 468.355 707.969 465.016 707.969 461.578C707.969 458.141 708.848 456.344 710.605 456.188C711.621 456.07 713.457 455.973 716.113 455.895C718.809 455.816 721.562 455.68 724.375 455.484C731.211 455.016 737.207 452.828 742.363 448.922C741.973 447.75 741.328 445.797 740.43 443.062C739.57 440.328 738.906 438.297 738.438 436.969C735.977 430.016 733.691 425.992 731.582 424.898C730.566 424.352 729.102 424.078 727.188 424.078C725.273 424.078 723.398 424.254 721.562 424.605C719.727 424.957 718.594 425.133 718.164 425.133C716.68 425.133 715.938 424.43 715.938 423.023C715.938 421.617 717.5 420.055 720.625 418.336C723.75 416.578 727.988 415.055 733.34 413.766C738.73 412.477 743.359 411.832 747.227 411.832C751.094 411.832 753.945 411.93 755.781 412.125C757.617 412.281 759.258 412.594 760.703 413.062C762.148 413.492 763.418 413.961 764.512 414.469C765.605 414.938 766.602 415.621 767.5 416.52C768.398 417.379 769.16 418.219 769.785 419.039C770.41 419.82 771.055 420.875 771.719 422.203Z" fill="#5B4E3A"/>
</g>
<path d="M113.887 470.25L114.668 468.409L113.426 467.882L112.473 468.836L113.887 470.25ZM106.445 474.176L106.033 472.219L106.018 472.222L106.003 472.225L106.445 474.176ZM69.4727 469.312L70.5126 467.604L70.5016 467.598L69.4727 469.312ZM77.207 459.82L78.3077 461.49L78.3164 461.484L77.207 459.82ZM82.2461 453.375L80.4753 452.445L80.4707 452.454L80.4662 452.463L82.2461 453.375ZM86.9922 442.594L88.8649 443.296L88.867 443.29L86.9922 442.594ZM91.2109 431.109L89.3374 430.409L89.334 430.418L89.3307 430.428L91.2109 431.109ZM95.6641 420.328L93.8458 419.495L93.8413 419.505L95.6641 420.328ZM109.316 404.508L108.454 402.703L108.453 402.704L109.316 404.508ZM119.57 401.637L119.881 403.612L119.89 403.611L119.899 403.61L119.57 401.637ZM134.16 400.699L133.939 402.687L133.997 402.693L134.055 402.696L134.16 400.699ZM138.086 405.914L136.278 405.058L136.268 405.08L136.258 405.102L138.086 405.914ZM129.707 425.191L127.802 424.583L126.913 427.367L129.83 427.188L129.707 425.191ZM151.562 419.273L152.672 420.938L152.681 420.932L151.562 419.273ZM140.957 394.078L141.118 392.085L141.115 392.084L140.957 394.078ZM114.414 395.484L114.786 397.45L114.799 397.447L114.414 395.484ZM100.82 399.117L100.07 397.263L100.062 397.266L100.82 399.117ZM92.0312 402.809L92.8024 404.654L92.8141 404.649L92.8257 404.644L92.0312 402.809ZM98.2422 392.027L97.4855 390.176L97.4799 390.178L98.2422 392.027ZM113.125 386.93L112.574 385.007L112.572 385.008L113.125 386.93ZM180.918 387.809L179.88 389.518L179.892 389.525L180.918 387.809ZM180.977 420.738L179.876 419.068L179.872 419.071L180.977 420.738ZM153.262 428.121L153.182 426.123L153.241 430.121L153.262 428.121ZM174.062 433.57L173.083 435.314L173.09 435.318L173.097 435.322L174.062 433.57ZM181.504 440.191L179.865 441.338L181.504 440.191ZM182.09 459.82L180.288 458.953L180.283 458.962L182.09 459.82ZM176.113 467.555L174.852 466.002L174.846 466.007L174.84 466.012L176.113 467.555ZM167.266 472.594L166.545 470.728L166.536 470.732L166.527 470.735L167.266 472.594ZM128.066 430.348L128.115 428.348L126.592 428.311L126.152 429.77L128.066 430.348ZM123.672 445.289L125.591 445.852L125.592 445.849L123.672 445.289ZM119.102 460.289L120.993 460.939L120.996 460.93L119.102 460.289ZM117.754 464.156L115.965 463.262L114.701 465.79L117.506 466.141L117.754 464.156ZM132.988 463.277L133.415 465.231L133.423 465.229L133.432 465.228L132.988 463.277ZM142.188 459.762L141.195 458.025L141.184 458.031L142.188 459.762ZM148.574 453.434L146.85 452.42L146.845 452.429L146.839 452.439L148.574 453.434ZM145.41 476.344V474.344C134.206 474.344 123.967 472.356 114.668 468.409L113.887 470.25L113.105 472.091C122.947 476.269 133.724 478.344 145.41 478.344V476.344ZM113.887 470.25L112.473 468.836C110.776 470.532 108.653 471.667 106.033 472.219L106.445 474.176L106.857 476.133C110.175 475.434 113.013 473.952 115.301 471.664L113.887 470.25ZM106.445 474.176L106.003 472.225C103.281 472.842 99.5225 473.172 94.668 473.172V475.172V477.172C99.6572 477.172 103.75 476.837 106.887 476.126L106.445 474.176ZM94.668 475.172V473.172C89.9414 473.172 85.3557 472.624 80.907 471.53L80.4297 473.473L79.9524 475.415C84.7224 476.587 89.6289 477.172 94.668 477.172V475.172ZM80.4297 473.473L80.907 471.53C76.4065 470.424 72.9691 469.099 70.5126 467.604L69.4727 469.312L68.4328 471.021C71.3668 472.807 75.2341 474.255 79.9524 475.415L80.4297 473.473ZM69.4727 469.312L70.5016 467.598C69.2347 466.837 68.4082 466.157 67.9176 465.582C67.435 465.017 67.3711 464.669 67.3711 464.508H65.3711H63.3711C63.3711 465.909 63.9908 467.143 64.8754 468.179C65.752 469.206 66.9763 470.147 68.4437 471.027L69.4727 469.312ZM65.3711 464.508H67.3711C67.3711 464.308 67.4045 464.178 67.6899 463.978L66.543 462.34L65.396 460.701C64.1189 461.595 63.3711 462.911 63.3711 464.508H65.3711ZM66.543 462.34L67.6899 463.978C68.1126 463.682 68.6048 463.52 69.2383 463.52V461.52V459.52C67.8405 459.52 66.5358 459.904 65.396 460.701L66.543 462.34ZM69.2383 461.52V463.52C72.9666 463.52 76.0991 462.946 78.3077 461.49L77.207 459.82L76.1064 458.15C74.8775 458.96 72.6975 459.52 69.2383 459.52V461.52ZM77.207 459.82L78.3164 461.484C80.4879 460.037 82.36 457.538 84.026 454.287L82.2461 453.375L80.4662 452.463C78.9291 455.462 77.4418 457.26 76.0976 458.156L77.207 459.82ZM82.2461 453.375L84.0169 454.305C85.7037 451.092 87.3185 447.419 88.8648 443.296L86.9922 442.594L85.1195 441.892C83.619 445.893 82.0697 449.408 80.4753 452.445L82.2461 453.375ZM86.9922 442.594L88.867 443.29C90.392 439.184 91.8001 435.351 93.0911 431.791L91.2109 431.109L89.3307 430.428C88.0437 433.977 86.6392 437.8 85.1173 441.897L86.9922 442.594ZM91.2109 431.109L93.0844 431.809C94.3963 428.298 95.8636 424.746 97.4868 421.151L95.6641 420.328L93.8413 419.505C92.1833 423.176 90.6819 426.811 89.3374 430.409L91.2109 431.109ZM95.6641 420.328L97.4823 421.161C101.004 413.474 105.284 408.655 110.18 406.312L109.316 404.508L108.453 402.704C102.411 405.595 97.5898 411.323 93.8458 419.495L95.6641 420.328ZM109.316 404.508L110.178 406.313C112.56 405.175 115.772 404.259 119.881 403.612L119.57 401.637L119.259 399.661C114.931 400.342 111.307 401.341 108.454 402.703L109.316 404.508ZM119.57 401.637L119.899 403.61C124.08 402.913 127.254 402.582 129.473 402.582V400.582V398.582C126.926 398.582 123.498 398.955 119.242 399.664L119.57 401.637ZM129.473 400.582V402.582C131.924 402.582 133.368 402.624 133.939 402.687L134.16 400.699L134.381 398.711C133.546 398.619 131.865 398.582 129.473 398.582V400.582ZM134.16 400.699L134.055 402.696C134.656 402.728 135.263 402.823 135.878 402.985L136.387 401.051L136.896 399.117C136.026 398.888 135.148 398.748 134.265 398.702L134.16 400.699ZM136.387 401.051L135.878 402.985C136.385 403.118 136.546 403.27 136.574 403.301C136.585 403.313 136.588 403.319 136.591 403.33C136.597 403.345 136.613 403.398 136.613 403.512H138.613H140.613C140.613 402.46 140.287 401.443 139.54 400.617C138.826 399.828 137.873 399.374 136.896 399.117L136.387 401.051ZM138.613 403.512H136.613C136.613 404.089 136.497 404.596 136.278 405.058L138.086 405.914L139.893 406.77C140.378 405.748 140.613 404.653 140.613 403.512H138.613ZM138.086 405.914L136.258 405.102C136.012 405.657 135.213 407.057 133.747 409.435L135.449 410.484L137.152 411.534C138.576 409.225 139.535 407.578 139.914 406.726L138.086 405.914ZM135.449 410.484L133.747 409.435C132.153 412.019 130.175 417.153 127.802 424.583L129.707 425.191L131.612 425.8C134.005 418.308 135.854 413.638 137.152 411.534L135.449 410.484ZM129.707 425.191L129.83 427.188C139.529 426.591 147.216 424.575 152.672 420.938L151.562 419.273L150.453 417.609C145.831 420.691 138.948 422.62 129.584 423.195L129.707 425.191ZM151.562 419.273L152.681 420.932C158.173 417.227 161.121 412.314 161.121 406.266H159.121H157.121C157.121 410.764 155.03 414.523 150.444 417.615L151.562 419.273ZM159.121 406.266H161.121C161.121 402.009 159.262 398.59 155.694 396.197C152.253 393.887 147.313 392.584 141.118 392.085L140.957 394.078L140.796 396.072C146.711 396.549 150.853 397.765 153.466 399.518C155.953 401.187 157.121 403.374 157.121 406.266H159.121ZM140.957 394.078L141.115 392.084C138.574 391.883 134.917 391.785 130.176 391.785V393.785V395.785C134.888 395.785 138.418 395.883 140.799 396.072L140.957 394.078ZM130.176 393.785V391.785C125.293 391.785 119.908 392.37 114.029 393.522L114.414 395.484L114.799 397.447C120.483 396.333 125.605 395.785 130.176 395.785V393.785ZM114.414 395.484L114.042 393.519C108.204 394.624 103.527 395.864 100.07 397.263L100.82 399.117L101.571 400.971C104.676 399.714 109.061 398.533 114.786 397.45L114.414 395.484ZM100.82 399.117L100.062 397.266C96.8105 398.598 93.8684 399.834 91.2368 400.973L92.0312 402.809L92.8257 404.644C95.4285 403.517 98.3458 402.292 101.578 400.968L100.82 399.117ZM92.0312 402.809L91.2601 400.963C89.9754 401.5 88.9567 401.888 88.1894 402.137C87.8059 402.262 87.5073 402.345 87.2841 402.396C87.0433 402.45 86.9637 402.449 86.9922 402.449V404.449V406.449C87.7125 406.449 88.5878 406.214 89.4278 405.941C90.3402 405.644 91.4699 405.211 92.8024 404.654L92.0312 402.809ZM86.9922 404.449V402.449C86.5871 402.449 86.2914 402.416 86.0851 402.371C85.984 402.349 85.9129 402.326 85.8659 402.307C85.8193 402.289 85.8008 402.277 85.8015 402.277C85.8139 402.285 85.8727 402.332 85.9176 402.42C85.9586 402.501 85.9453 402.532 85.9453 402.457H83.9453H81.9453C81.9453 403.72 82.4792 404.884 83.6125 405.625C84.5982 406.27 85.8223 406.449 86.9922 406.449V404.449ZM83.9453 402.457H85.9453C85.9453 402.397 85.9799 402.077 86.4721 401.449C86.9531 400.835 87.7492 400.083 88.942 399.203L87.7539 397.594L86.5658 395.985C85.2195 396.979 84.1114 397.976 83.3229 398.983C82.5455 399.975 81.9453 401.15 81.9453 402.457H83.9453ZM87.7539 397.594L88.942 399.203C91.2998 397.461 94.6323 395.679 99.0045 393.876L98.2422 392.027L97.4799 390.178C92.9458 392.048 89.2861 393.976 86.5658 395.985L87.7539 397.594ZM98.2422 392.027L98.9988 393.879C103.415 392.074 108.307 390.397 113.678 388.852L113.125 386.93L112.572 385.008C107.084 386.587 102.054 388.309 97.4855 390.176L98.2422 392.027ZM113.125 386.93L113.676 388.852C125.758 385.389 138.248 383.656 151.152 383.656V381.656V379.656C137.885 379.656 125.023 381.439 112.574 385.007L113.125 386.93ZM151.152 381.656V383.656C164.087 383.656 173.578 385.693 179.88 389.518L180.918 387.809L181.956 386.099C174.742 381.721 164.39 379.656 151.152 379.656V381.656ZM180.918 387.809L179.892 389.525C186.212 393.303 189.113 398.102 189.113 403.98H191.113H193.113C193.113 396.421 189.218 390.439 181.944 386.092L180.918 387.809ZM191.113 403.98H189.113C189.113 409.883 186.204 414.898 179.876 419.068L180.977 420.738L182.077 422.408C189.264 417.672 193.113 411.516 193.113 403.98H191.113ZM180.977 420.738L179.872 419.071C173.567 423.25 164.732 425.662 153.182 426.123L153.262 428.121L153.341 430.12C165.307 429.642 174.948 427.133 182.081 422.405L180.977 420.738ZM153.262 428.121L153.241 430.121C160.458 430.196 167.059 431.93 173.083 435.314L174.062 433.57L175.042 431.827C168.409 428.101 161.144 426.203 153.282 426.121L153.262 428.121ZM174.062 433.57L173.097 435.322C175.888 436.86 178.134 438.865 179.865 441.338L181.504 440.191L183.142 439.044C181.046 436.049 178.331 433.64 175.028 431.819L174.062 433.57ZM181.504 440.191L179.865 441.338C181.526 443.71 182.375 446.467 182.375 449.684H184.375H186.375C186.375 445.713 185.31 442.141 183.142 439.044L181.504 440.191ZM184.375 449.684H182.375C182.375 452.984 181.678 456.066 180.288 458.953L182.09 459.82L183.892 460.688C185.549 457.247 186.375 453.571 186.375 449.684H184.375ZM182.09 459.82L180.283 458.962C178.917 461.838 177.104 464.173 174.852 466.002L176.113 467.555L177.374 469.107C180.123 466.874 182.294 464.052 183.896 460.678L182.09 459.82ZM176.113 467.555L174.84 466.012C172.568 467.888 169.812 469.466 166.545 470.728L167.266 472.594L167.986 474.459C171.594 473.066 174.737 471.284 177.386 469.097L176.113 467.555ZM167.266 472.594L166.527 470.735C160.519 473.123 153.493 474.344 145.41 474.344V476.344V478.344C153.89 478.344 161.434 477.064 168.004 474.452L167.266 472.594ZM128.066 430.348L126.152 429.77C125.406 432.241 123.939 437.231 121.752 444.729L123.672 445.289L125.592 445.849C127.78 438.348 129.242 433.376 129.981 430.925L128.066 430.348ZM123.672 445.289L121.753 444.726C119.564 452.193 118.051 457.154 117.207 459.648L119.102 460.289L120.996 460.93C121.871 458.346 123.405 453.307 125.591 445.852L123.672 445.289ZM119.102 460.289L117.21 459.639C116.781 460.888 116.455 461.832 116.232 462.473C116.12 462.794 116.035 463.034 115.977 463.198C115.947 463.28 115.926 463.338 115.913 463.373C115.878 463.469 115.91 463.373 115.965 463.262L117.754 464.156L119.543 465.051C119.591 464.954 119.625 464.864 119.627 464.86C119.639 464.829 119.652 464.796 119.662 464.767C119.685 464.708 119.712 464.632 119.744 464.543C119.807 464.365 119.896 464.113 120.009 463.789C120.235 463.14 120.563 462.19 120.993 460.939L119.102 460.289ZM117.754 464.156L117.506 466.141C118.888 466.314 120.986 466.391 123.73 466.391V464.391V462.391C121.006 462.391 119.12 462.311 118.002 462.172L117.754 464.156ZM123.73 464.391V466.391C126.678 466.391 129.91 465.997 133.415 465.231L132.988 463.277L132.562 461.323C129.27 462.042 126.33 462.391 123.73 462.391V464.391ZM132.988 463.277L133.432 465.228C137.04 464.407 140.3 463.168 143.191 461.492L142.188 459.762L141.184 458.031C138.685 459.481 135.811 460.585 132.545 461.327L132.988 463.277ZM142.188 459.762L143.18 461.498C146.214 459.764 148.603 457.403 150.309 454.429L148.574 453.434L146.839 452.439C145.498 454.777 143.63 456.634 141.195 458.025L142.188 459.762ZM148.574 453.434L150.298 454.448C152.079 451.421 152.918 447.83 152.918 443.766H150.918H148.918C148.918 447.28 148.195 450.134 146.85 452.42L148.574 453.434ZM150.918 443.766H152.918C152.918 439.015 150.081 435.31 145.283 432.592L144.297 434.332L143.311 436.072C147.341 438.354 148.918 440.938 148.918 443.766H150.918ZM144.297 434.332L145.283 432.592C140.517 429.892 134.766 428.51 128.115 428.348L128.066 430.348L128.018 432.347C134.18 432.497 139.249 433.772 143.311 436.072L144.297 434.332ZM204.59 470.074L203.56 471.788L203.561 471.789L204.59 470.074ZM196.445 436.793L194.636 435.94L194.633 435.947L196.445 436.793ZM204.414 426.07L203.089 424.573L203.08 424.58L204.414 426.07ZM216.25 418.336L217.113 420.14L217.119 420.137L216.25 418.336ZM284.102 433.512L282.118 433.764L282.277 435.017L283.477 435.412L284.102 433.512ZM305.371 432.281L304.493 430.484L304.485 430.488L304.477 430.492L305.371 432.281ZM307.891 437.672L306.768 436.016L306.761 436.022L307.891 437.672ZM284.102 441.715L284.423 439.741L282.378 439.408L282.117 441.463L284.102 441.715ZM268.867 466.266L267.685 464.652L267.684 464.653L268.867 466.266ZM253.164 473.648L252.608 471.727L252.605 471.728L253.164 473.648ZM216.953 474.762L217.389 472.81L217.381 472.808L217.373 472.806L216.953 474.762ZM243.145 460.465L241.581 459.217L241.573 459.228L243.145 460.465ZM249.941 446.812L248.027 446.234L248.023 446.247L249.941 446.812ZM236.465 426.598L235.051 425.183L235.042 425.192L236.465 426.598ZM228.73 439.254L226.858 438.55L226.855 438.558L228.73 439.254ZM204.59 470.074L205.62 468.36C198.913 464.329 195.574 458.301 195.574 449.977H193.574H191.574C191.574 459.621 195.579 466.992 203.56 471.788L204.59 470.074ZM193.574 449.977H195.574C195.574 445.571 196.472 441.466 198.258 437.639L196.445 436.793L194.633 435.947C192.591 440.323 191.574 445.008 191.574 449.977H193.574ZM196.445 436.793L198.254 437.646C200.095 433.744 202.591 430.387 205.748 427.56L204.414 426.07L203.08 424.58C199.518 427.769 196.702 431.561 194.636 435.94L196.445 436.793ZM204.414 426.07L205.74 427.568C208.986 424.695 212.772 422.216 217.113 420.14L216.25 418.336L215.387 416.532C210.743 418.753 206.639 421.43 203.089 424.573L204.414 426.07ZM216.25 418.336L217.119 420.137C225.792 415.952 235.779 413.832 247.129 413.832V411.832V409.832C235.275 409.832 224.677 412.048 215.381 416.535L216.25 418.336ZM247.129 411.832V413.832C258.371 413.832 266.746 415.621 272.47 418.977C278.085 422.27 281.276 427.138 282.118 433.764L284.102 433.512L286.086 433.26C285.091 425.432 281.203 419.461 274.493 415.527C267.893 411.656 258.699 409.832 247.129 409.832V411.832ZM284.102 433.512L283.477 435.412C286.414 436.377 289.437 436.859 292.539 436.859V434.859V432.859C289.86 432.859 287.258 432.444 284.726 431.612L284.102 433.512ZM292.539 434.859V436.859C295.553 436.859 298.15 436.64 300.293 436.168L299.863 434.215L299.434 432.262C297.67 432.649 295.384 432.859 292.539 432.859V434.859ZM299.863 434.215L300.293 436.168C302.401 435.704 304.393 435.006 306.266 434.07L305.371 432.281L304.477 430.492C302.911 431.275 301.232 431.866 299.434 432.262L299.863 434.215ZM305.371 432.281L306.25 434.078C307.086 433.669 307.757 433.384 308.277 433.206C308.535 433.117 308.738 433.061 308.891 433.028C308.966 433.012 309.023 433.002 309.064 432.997C309.106 432.992 309.123 432.992 309.121 432.992V430.992V428.992C308.42 428.992 307.674 429.183 306.977 429.423C306.246 429.674 305.414 430.034 304.493 430.484L305.371 432.281ZM309.121 430.992V432.992C309.336 432.992 309.444 433.019 309.478 433.03C309.502 433.038 309.457 433.027 309.396 432.967C309.333 432.906 309.314 432.854 309.316 432.859C309.322 432.876 309.348 432.964 309.348 433.16H311.348H313.348C313.348 432.115 313.076 430.968 312.186 430.101C311.306 429.244 310.158 428.992 309.121 428.992V430.992ZM311.348 433.16H309.348C309.348 433.521 309.003 434.502 306.768 436.016L307.891 437.672L309.013 439.327C311.388 437.717 313.348 435.69 313.348 433.16H311.348ZM307.891 437.672L306.761 436.022C302.858 438.694 297.551 440.125 290.664 440.125V442.125V444.125C298.074 444.125 304.251 442.587 309.021 439.322L307.891 437.672ZM290.664 442.125V440.125C288.022 440.125 285.954 439.99 284.423 439.741L284.102 441.715L283.78 443.689C285.609 443.987 287.916 444.125 290.664 444.125V442.125ZM284.102 441.715L282.117 441.463C280.945 450.698 276.204 458.413 267.685 464.652L268.867 466.266L270.049 467.879C279.343 461.072 284.758 452.419 286.086 441.967L284.102 441.715ZM268.867 466.266L267.684 464.653C263.653 467.612 258.642 469.981 252.608 471.727L253.164 473.648L253.72 475.57C260.108 473.722 265.566 471.169 270.051 467.878L268.867 466.266ZM253.164 473.648L252.605 471.728C246.621 473.47 240.403 474.344 233.945 474.344V476.344V478.344C240.769 478.344 247.364 477.42 253.723 475.569L253.164 473.648ZM233.945 476.344V474.344C227.441 474.344 221.931 473.823 217.389 472.81L216.953 474.762L216.518 476.714C221.428 477.809 227.246 478.344 233.945 478.344V476.344ZM216.953 474.762L217.373 472.806C212.824 471.829 208.916 470.337 205.619 468.359L204.59 470.074L203.561 471.789C207.295 474.03 211.629 475.663 216.533 476.717L216.953 474.762ZM225.859 455.133H223.859C223.859 458.93 224.542 462.14 226.221 464.442C227.987 466.861 230.624 467.973 233.77 467.973V465.973V463.973C231.642 463.973 230.324 463.278 229.452 462.084C228.496 460.772 227.859 458.562 227.859 455.133H225.859ZM233.77 465.973V467.973C237.957 467.973 241.603 465.656 244.716 461.702L243.145 460.465L241.573 459.228C238.905 462.617 236.3 463.973 233.77 463.973V465.973ZM243.145 460.465L244.708 461.712C247.828 457.801 250.2 453.006 251.86 447.378L249.941 446.812L248.023 446.247C246.48 451.478 244.32 455.785 241.581 459.217L243.145 460.465ZM249.941 446.812L251.856 447.391C253.553 441.775 254.402 436.053 254.402 430.23H252.402H250.402C250.402 435.658 249.611 440.99 248.027 446.234L249.941 446.812ZM252.402 430.23H254.402C254.402 427.228 253.891 424.62 252.564 422.715C251.146 420.679 249.003 419.734 246.484 419.734V421.734V423.734C247.911 423.734 248.727 424.206 249.282 425.002C249.928 425.929 250.402 427.569 250.402 430.23H252.402ZM246.484 421.734V419.734C242.358 419.734 238.539 421.696 235.051 425.183L236.465 426.598L237.879 428.012C240.876 425.015 243.736 423.734 246.484 423.734V421.734ZM236.465 426.598L235.042 425.192C231.603 428.673 228.889 433.148 226.858 438.55L228.73 439.254L230.603 439.958C232.478 434.969 234.92 431.007 237.888 428.003L236.465 426.598ZM228.73 439.254L226.855 438.558C224.86 443.934 223.859 449.462 223.859 455.133H225.859H227.859C227.859 449.944 228.773 444.886 230.605 439.95L228.73 439.254ZM325.059 469.43L326.339 467.893L325.478 467.176L324.416 467.536L325.059 469.43ZM295.586 473.297L294.446 474.94L294.465 474.953L294.484 474.966L295.586 473.297ZM300.391 444.82L302.272 445.498L302.274 445.494L300.391 444.82ZM314.922 392.379H316.922V392.353L316.921 392.326L314.922 392.379ZM314.863 390.152H312.863V390.179L312.864 390.205L314.863 390.152ZM335.84 387.223V389.223H335.855L335.87 389.222L335.84 387.223ZM347.617 387.047V385.047H347.602L347.587 385.047L347.617 387.047ZM349.902 387.984L348.35 389.246L348.37 389.27L348.391 389.294L349.902 387.984ZM339.883 424.078L338.011 423.374L341.297 425.492L339.883 424.078ZM339.941 424.02L341.356 425.434L341.401 425.388L341.444 425.34L339.941 424.02ZM352.246 415.055L353.05 416.886L353.057 416.883L352.246 415.055ZM376.211 465.797L374.951 464.244L369.869 468.365L376.387 467.789L376.211 465.797ZM406.27 458.18L407.228 459.935L407.234 459.932L407.241 459.928L406.27 458.18ZM409.258 462.516L410.399 464.158L410.425 464.14L410.45 464.121L409.258 462.516ZM351.25 476.109L351.244 474.109L351.167 474.11L351.091 474.116L351.25 476.109ZM335.078 474.469L335.656 472.554L335.644 472.551L335.078 474.469ZM333.086 443.59L334.917 444.394L334.918 444.391L333.086 443.59ZM331.27 462.75L329.761 464.064L329.773 464.077L329.785 464.091L331.27 462.75ZM347.793 460.23L349.038 461.795L349.04 461.794L347.793 460.23ZM325.059 469.43L324.416 467.536C318.734 469.462 314.108 470.897 310.527 471.847C306.885 472.814 304.498 473.23 303.203 473.23V475.23V477.23C305.072 477.23 307.91 476.68 311.553 475.713C315.257 474.73 319.977 473.264 325.701 471.324L325.059 469.43ZM303.203 475.23V473.23C300.341 473.23 298.221 472.64 296.688 471.628L295.586 473.297L294.484 474.966C296.857 476.532 299.815 477.23 303.203 477.23V475.23ZM295.586 473.297L296.726 471.654C295.232 470.617 294.715 469.54 294.715 468.375H292.715H290.715C290.715 471.116 292.112 473.321 294.446 474.94L295.586 473.297ZM292.715 468.375H294.715C294.715 468.407 294.717 468.292 294.793 467.927C294.861 467.599 294.969 467.159 295.123 466.596C295.431 465.474 295.9 463.943 296.535 461.993C297.805 458.096 299.716 452.601 302.272 445.498L300.391 444.82L298.509 444.143C295.948 451.259 294.021 456.799 292.732 460.753C292.089 462.729 291.598 464.328 291.266 465.539C291.1 466.144 290.968 466.672 290.877 467.113C290.793 467.517 290.715 467.972 290.715 468.375H292.715ZM300.391 444.82L302.274 445.494C307.126 431.936 310.776 420.748 313.216 411.941C315.641 403.193 316.922 396.62 316.922 392.379H314.922H312.922C312.922 396.028 311.781 402.141 309.362 410.873C306.958 419.547 303.343 430.634 298.508 444.146L300.391 444.82ZM314.922 392.379L316.921 392.326L316.863 390.1L314.863 390.152L312.864 390.205L312.923 392.432L314.922 392.379ZM314.863 390.152H316.863C316.863 390.002 316.895 389.961 316.898 389.957C316.907 389.942 316.969 389.852 317.201 389.733C317.722 389.464 318.759 389.223 320.547 389.223V387.223V385.223C318.545 385.223 316.741 385.47 315.368 386.177C314.652 386.546 314.003 387.067 313.539 387.785C313.069 388.512 312.863 389.326 312.863 390.152H314.863ZM320.547 387.223V389.223H335.84V387.223V385.223H320.547V387.223ZM335.84 387.223L335.87 389.222L347.647 389.047L347.617 387.047L347.587 385.047L335.81 385.223L335.84 387.223ZM347.617 387.047V389.047C348.202 389.047 348.318 389.207 348.35 389.246L349.902 387.984L351.455 386.723C350.471 385.512 349.064 385.047 347.617 385.047V387.047ZM349.902 387.984L348.391 389.294C348.599 389.534 348.664 389.739 348.664 389.977H350.664H352.664C352.664 388.73 352.221 387.606 351.414 386.675L349.902 387.984ZM350.664 389.977H348.664C348.664 390.634 348.489 391.832 348.045 393.685C347.611 395.497 346.953 397.806 346.062 400.624C344.281 406.258 341.6 413.837 338.011 423.374L339.883 424.078L341.755 424.782C345.354 415.218 348.063 407.563 349.876 401.829C350.782 398.964 351.471 396.556 351.935 394.617C352.39 392.72 352.664 391.135 352.664 389.977H350.664ZM339.883 424.078L341.297 425.492L341.356 425.434L339.941 424.02L338.527 422.605L338.469 422.664L339.883 424.078ZM339.941 424.02L341.444 425.34C344.646 421.696 348.507 418.88 353.05 416.886L352.246 415.055L351.442 413.223C346.375 415.448 342.034 418.609 338.439 422.699L339.941 424.02ZM352.246 415.055L353.057 416.883C357.632 414.854 362.569 413.832 367.891 413.832V411.832V409.832C362.041 409.832 356.548 410.959 351.435 413.226L352.246 415.055ZM367.891 411.832V413.832C375.759 413.832 381.288 415.674 384.85 419.006C388.386 422.313 390.324 427.41 390.324 434.684H392.324H394.324C394.324 426.723 392.19 420.394 387.582 416.084C382.999 411.798 376.311 409.832 367.891 409.832V411.832ZM392.324 434.684H390.324C390.324 440.199 388.967 445.522 386.223 450.677L387.988 451.617L389.754 452.557C392.79 446.853 394.324 440.887 394.324 434.684H392.324ZM387.988 451.617L386.223 450.677C383.463 455.862 379.712 460.382 374.951 464.244L376.211 465.797L377.471 467.35C382.631 463.165 386.732 458.232 389.754 452.557L387.988 451.617ZM376.211 465.797L376.387 467.789C389.336 466.644 399.662 464.066 407.228 459.935L406.27 458.18L405.311 456.424C398.424 460.184 388.711 462.684 376.035 463.805L376.211 465.797ZM406.27 458.18L407.241 459.928C408.146 459.425 408.718 459.301 409.023 459.301V457.301V455.301C407.766 455.301 406.503 455.762 405.298 456.431L406.27 458.18ZM409.023 457.301V459.301C409.274 459.301 409.423 459.327 409.496 459.347C409.564 459.366 409.535 459.37 409.469 459.316C409.436 459.289 409.403 459.254 409.373 459.214C409.343 459.173 409.324 459.136 409.313 459.108C409.291 459.054 409.309 459.063 409.309 459.176H411.309H413.309C413.309 458.127 412.97 457.014 412.006 456.223C411.118 455.495 410.008 455.301 409.023 455.301V457.301ZM411.309 459.176H409.309C409.309 459.523 409.144 460.108 408.065 460.91L409.258 462.516L410.45 464.121C412.106 462.892 413.309 461.251 413.309 459.176H411.309ZM409.258 462.516L408.117 460.873C403.291 464.226 395.672 467.298 385.089 470.012L385.586 471.949L386.083 473.887C396.828 471.131 404.991 467.915 410.399 464.158L409.258 462.516ZM385.586 471.949L385.089 470.012C374.602 472.701 363.323 474.071 351.244 474.109L351.25 476.109L351.256 478.109C363.63 478.07 375.242 476.666 386.083 473.887L385.586 471.949ZM351.25 476.109L351.091 474.116C349.2 474.267 347.105 474.344 344.805 474.344V476.344V478.344C347.192 478.344 349.394 478.264 351.409 478.103L351.25 476.109ZM344.805 476.344V474.344C342.757 474.344 339.739 473.787 335.656 472.554L335.078 474.469L334.5 476.383C338.698 477.651 342.165 478.344 344.805 478.344V476.344ZM335.078 474.469L335.644 472.551C331.735 471.397 328.659 469.826 326.339 467.893L325.059 469.43L323.778 470.966C326.615 473.33 330.218 475.119 334.512 476.387L335.078 474.469ZM351.484 426.715V424.715C342.893 424.715 336.261 431.343 331.254 442.788L333.086 443.59L334.918 444.391C339.755 433.336 345.388 428.715 351.484 428.715V426.715ZM333.086 443.59L331.255 442.785C328.95 448.032 327.688 452.513 327.688 456.129H329.688H331.688C331.688 453.338 332.691 449.461 334.917 444.394L333.086 443.59ZM329.688 456.129H327.688C327.688 459.405 328.197 462.267 329.761 464.064L331.27 462.75L332.778 461.436C332.233 460.811 331.688 459.259 331.688 456.129H329.688ZM331.27 462.75L329.785 464.091C331.486 465.974 334.373 466.566 337.598 466.566V464.566V462.566C334.572 462.566 333.24 461.948 332.754 461.409L331.27 462.75ZM337.598 464.566V466.566C341.383 466.566 345.211 464.841 349.038 461.795L347.793 460.23L346.548 458.665C343.109 461.402 340.141 462.566 337.598 462.566V464.566ZM347.793 460.23L349.04 461.794C352.949 458.675 356.077 454.773 358.426 450.116L356.641 449.215L354.855 448.314C352.751 452.485 349.981 455.926 346.546 458.667L347.793 460.23ZM356.641 449.215L358.426 450.116C360.74 445.529 361.98 441.25 361.98 437.32H359.98H357.98C357.98 440.422 356.994 444.073 354.855 448.314L356.641 449.215ZM359.98 437.32H361.98C361.98 433.518 361.151 430.295 359.132 428.023L357.637 429.352L356.142 430.68C357.248 431.924 357.98 434.013 357.98 437.32H359.98ZM357.637 429.352L359.132 428.023C357.157 425.801 354.544 424.715 351.484 424.715V426.715V428.715C353.503 428.715 354.992 429.386 356.142 430.68L357.637 429.352ZM464.512 444.586L462.681 443.781L462.679 443.784L464.512 444.586ZM466.27 425.426L464.761 426.739L464.773 426.753L464.785 426.766L466.27 425.426ZM449.746 428.004L450.991 429.569L450.993 429.567L449.746 428.004ZM476.582 411.832L476.674 409.834L476.628 409.832H476.582V411.832ZM503.418 413.062L503.326 415.06L503.372 415.062H503.418V413.062ZM505.703 414L504.151 415.261L504.171 415.286L504.192 415.31L505.703 414ZM502.891 429.645L501.022 428.932L501.019 428.938L502.891 429.645ZM495.801 448.16L493.937 447.436L493.934 447.442L495.801 448.16ZM493.164 464.039L491.799 465.501L491.823 465.523L491.847 465.544L493.164 464.039ZM506.055 462.398L506.736 464.279L506.745 464.276L506.055 462.398ZM515.312 458.59L514.384 456.818L514.376 456.823L514.367 456.828L515.312 458.59ZM503.77 470.719L503.027 468.862L503.017 468.866L503.77 470.719ZM489.473 474.703L489.102 472.738L489.094 472.739L489.086 472.741L489.473 474.703ZM455.254 467.203L457.158 466.593L456.158 463.471L453.84 465.789L455.254 467.203ZM412.715 471.246L411.57 472.886L411.572 472.888L412.715 471.246ZM412.188 430.523L413.825 431.672L413.832 431.661L412.188 430.523ZM433.984 414.293L433.365 412.391L433.364 412.392L433.984 414.293ZM470.898 418.395L469.57 419.889L472.276 422.295L472.871 418.723L470.898 418.395ZM470.957 417.281H472.957V417.258L472.956 417.235L470.957 417.281ZM470.898 414.762H468.898V414.785L468.899 414.808L470.898 414.762ZM446.113 461.461V463.461C454.704 463.461 461.337 456.833 466.344 445.388L464.512 444.586L462.679 443.784C457.843 454.839 452.21 459.461 446.113 459.461V461.461ZM464.512 444.586L466.343 445.39C468.648 440.144 469.91 435.662 469.91 432.047H467.91H465.91C465.91 434.838 464.907 438.715 462.681 443.781L464.512 444.586ZM467.91 432.047H469.91C469.91 428.76 469.379 425.884 467.754 424.085L466.27 425.426L464.785 426.766C465.348 427.389 465.91 428.927 465.91 432.047H467.91ZM466.27 425.426L467.778 424.112C466.106 422.193 463.183 421.609 459.941 421.609V423.609V425.609C463.028 425.609 464.324 426.237 464.761 426.739L466.27 425.426ZM459.941 423.609V421.609C456.185 421.609 452.354 423.364 448.499 426.441L449.746 428.004L450.993 429.567C454.482 426.784 457.448 425.609 459.941 425.609V423.609ZM449.746 428.004L448.501 426.439C444.628 429.521 441.519 433.405 439.171 438.06L440.957 438.961L442.743 439.862C444.848 435.688 447.599 432.268 450.991 429.569L449.746 428.004ZM440.957 438.961L439.171 438.06C436.856 442.651 435.617 446.949 435.617 450.914H437.617H439.617C439.617 447.77 440.605 444.099 442.743 439.862L440.957 438.961ZM437.617 450.914H435.617C435.617 454.684 436.45 457.885 438.466 460.153L439.961 458.824L441.456 457.495C440.347 456.248 439.617 454.176 439.617 450.914H437.617ZM439.961 458.824L438.466 460.153C440.441 462.375 443.054 463.461 446.113 463.461V461.461V459.461C444.094 459.461 442.606 458.79 441.456 457.495L439.961 458.824ZM476.582 411.832L476.49 413.83L503.326 415.06L503.418 413.062L503.51 411.065L476.674 409.834L476.582 411.832ZM503.418 413.062V415.062C504.003 415.062 504.119 415.222 504.151 415.261L505.703 414L507.255 412.739C506.271 411.528 504.864 411.062 503.418 411.062V413.062ZM505.703 414L504.192 415.31C504.4 415.55 504.465 415.754 504.465 415.992H506.465H508.465C508.465 414.746 508.022 413.622 507.215 412.69L505.703 414ZM506.465 415.992H504.465C504.465 418.44 503.404 422.685 501.022 428.932L502.891 429.645L504.759 430.357C507.143 424.104 508.465 419.247 508.465 415.992H506.465ZM502.891 429.645L501.019 428.938C498.678 435.143 496.317 441.309 493.937 447.436L495.801 448.16L497.665 448.884C500.05 442.746 502.416 436.568 504.762 430.351L502.891 429.645ZM495.801 448.16L493.934 447.442C492.752 450.517 491.851 453.109 491.243 455.206C490.65 457.254 490.285 458.992 490.285 460.289H492.285H494.285C494.285 459.594 494.507 458.315 495.085 456.319C495.649 454.373 496.506 451.897 497.667 448.878L495.801 448.16ZM492.285 460.289H490.285C490.285 461.348 490.363 462.317 490.558 463.148C490.745 463.946 491.091 464.84 491.799 465.501L493.164 464.039L494.529 462.577C494.651 462.692 494.558 462.687 494.452 462.235C494.354 461.816 494.285 461.183 494.285 460.289H492.285ZM493.164 464.039L491.847 465.544C493.067 466.611 494.91 466.859 496.68 466.859V464.859V462.859C495.914 462.859 495.355 462.797 494.966 462.707C494.566 462.613 494.461 462.516 494.481 462.534L493.164 464.039ZM496.68 464.859V466.859C497.8 466.859 499.21 466.601 500.82 466.179C502.462 465.748 504.438 465.111 506.736 464.279L506.055 462.398L505.374 460.518C503.14 461.327 501.288 461.92 499.805 462.31C498.29 462.707 497.278 462.859 496.68 462.859V464.859ZM506.055 462.398L506.745 464.276C511.304 462.6 514.516 461.287 516.258 460.352L515.312 458.59L514.367 456.828C512.906 457.611 509.946 458.837 505.365 460.521L506.055 462.398ZM515.312 458.59L516.241 460.362C517.853 459.517 518.728 459.301 519.062 459.301V457.301V455.301C517.679 455.301 516.053 455.944 514.384 456.818L515.312 458.59ZM519.062 457.301V459.301C519.3 459.301 519.433 459.328 519.489 459.345C519.539 459.36 519.503 459.358 519.441 459.302C519.411 459.275 519.385 459.245 519.364 459.213C519.343 459.183 519.333 459.159 519.33 459.151C519.325 459.136 519.348 459.19 519.348 459.352H521.348H523.348C523.348 458.3 523.045 457.162 522.112 456.325C521.221 455.525 520.082 455.301 519.062 455.301V457.301ZM521.348 459.352H519.348C519.348 459.387 519.323 459.711 518.746 460.369C518.184 461.01 517.254 461.785 515.867 462.682C513.1 464.472 508.846 466.534 503.027 468.862L503.77 470.719L504.512 472.576C510.412 470.216 514.947 468.04 518.039 466.041C519.582 465.043 520.85 464.036 521.753 463.007C522.64 461.995 523.348 460.762 523.348 459.352H521.348ZM503.77 470.719L503.017 468.866C499.228 470.404 494.597 471.7 489.102 472.738L489.473 474.703L489.844 476.668C495.52 475.597 500.42 474.237 504.522 472.572L503.77 470.719ZM489.473 474.703L489.086 472.741C483.668 473.809 478.153 474.344 472.539 474.344V476.344V478.344C478.409 478.344 484.183 477.785 489.86 476.665L489.473 474.703ZM472.539 476.344V474.344C467.938 474.344 464.464 473.607 461.975 472.291C459.547 471.006 457.972 469.132 457.158 466.593L455.254 467.203L453.349 467.814C454.489 471.368 456.772 474.064 460.105 475.827C463.377 477.557 467.569 478.344 472.539 478.344V476.344ZM455.254 467.203L453.84 465.789C448.193 471.435 440.538 474.344 430.645 474.344V476.344V478.344C441.376 478.344 450.127 475.158 456.668 468.617L455.254 467.203ZM430.645 476.344V474.344C423.904 474.344 418.346 472.728 413.857 469.605L412.715 471.246L411.572 472.888C416.85 476.561 423.244 478.344 430.645 478.344V476.344ZM412.715 471.246L413.86 469.606C409.209 466.357 406.746 461.212 406.746 453.727H404.746H402.746C402.746 462.179 405.596 468.713 411.57 472.886L412.715 471.246ZM404.746 453.727H406.746C406.746 445.752 409.093 438.416 413.825 431.672L412.188 430.523L410.55 429.375C405.36 436.771 402.746 444.905 402.746 453.727H404.746ZM412.188 430.523L413.832 431.661C419.013 424.17 425.918 419.028 434.605 416.194L433.984 414.293L433.364 412.392C423.848 415.496 416.222 421.173 410.543 429.386L412.188 430.523ZM433.984 414.293L434.604 416.195C439.425 414.625 444.625 413.832 450.215 413.832V411.832V409.832C444.242 409.832 438.622 410.68 433.365 412.391L433.984 414.293ZM450.215 411.832V413.832C458.764 413.832 465.125 415.938 469.57 419.889L470.898 418.395L472.227 416.9C466.828 412.101 459.4 409.832 450.215 409.832V411.832ZM470.898 418.395L472.871 418.723C472.939 418.315 472.957 417.804 472.957 417.281H470.957H468.957C468.957 417.774 468.936 418.005 468.926 418.066L470.898 418.395ZM470.957 417.281L472.956 417.235L472.898 414.715L470.898 414.762L468.899 414.808L468.958 417.328L470.957 417.281ZM470.898 414.762H472.898C472.898 414.611 472.93 414.571 472.933 414.566C472.942 414.552 473.004 414.462 473.236 414.342C473.757 414.073 474.794 413.832 476.582 413.832V411.832V409.832C474.581 409.832 472.776 410.079 471.403 410.787C470.687 411.156 470.039 411.676 469.574 412.394C469.104 413.122 468.898 413.936 468.898 414.762H470.898ZM628.926 463.219L630.107 464.832L630.113 464.828L628.926 463.219ZM609.297 472.184L608.69 470.278L608.688 470.279L609.297 472.184ZM572.207 474.293L573.017 472.464L573.006 472.46L572.207 474.293ZM565.879 467.203L567.77 466.551L566.717 463.498L564.453 465.801L565.879 467.203ZM556.094 473.531L556.9 475.362L556.907 475.359L556.914 475.355L556.094 473.531ZM530.957 475.055L531.506 473.132L531.495 473.128L531.483 473.125L530.957 475.055ZM516.895 464.215L515.083 465.062L515.089 465.076L515.096 465.09L516.895 464.215ZM522.168 430.523L520.529 429.378L520.526 429.381L522.168 430.523ZM544.023 414.293L543.404 412.391L543.4 412.393L544.023 414.293ZM583.926 418.922L582.724 420.521L585.384 422.52L585.901 419.233L583.926 418.922ZM587.207 391.676H589.207V391.641L589.206 391.607L587.207 391.676ZM587.148 389.977H585.148V390.011L585.15 390.045L587.148 389.977ZM592.832 387.047L592.926 385.049L592.879 385.047H592.832V387.047ZM619.082 388.277L618.988 390.275L619.035 390.277H619.082V388.277ZM621.309 389.156L619.846 390.521L619.87 390.546L619.894 390.57L621.309 389.156ZM612.461 428.531L614.354 429.178L614.354 429.177L612.461 428.531ZM603.555 463.512L601.878 464.602L601.897 464.63L601.916 464.659L603.555 463.512ZM574.551 444.586L572.778 443.661L572.746 443.722L572.718 443.784L574.551 444.586ZM577.129 425.074L575.621 426.388L575.633 426.401L575.645 426.415L577.129 425.074ZM551.113 438.902L549.34 437.977L549.337 437.983L551.113 438.902ZM628.75 457.301V459.301C629.364 459.301 629.452 459.445 629.381 459.38C629.344 459.347 629.336 459.318 629.344 459.339C629.356 459.372 629.387 459.48 629.387 459.703H631.387H633.387C633.387 458.544 633.06 457.321 632.075 456.423C631.124 455.557 629.894 455.301 628.75 455.301V457.301ZM631.387 459.703H629.387C629.387 459.835 629.26 460.486 627.738 461.61L628.926 463.219L630.113 464.828C631.873 463.529 633.387 461.837 633.387 459.703H631.387ZM628.926 463.219L627.744 461.605C623.623 464.622 617.316 467.532 608.69 470.278L609.297 472.184L609.904 474.089C618.7 471.289 625.478 468.221 630.107 464.832L628.926 463.219ZM609.297 472.184L608.688 470.279C600.14 473.012 592.775 474.344 586.562 474.344V476.344V478.344C593.318 478.344 601.11 476.902 609.906 474.089L609.297 472.184ZM586.562 476.344V474.344C580.147 474.344 575.708 473.657 573.017 472.464L572.207 474.293L571.397 476.122C574.878 477.664 580.009 478.344 586.562 478.344V476.344ZM572.207 474.293L573.006 472.46C570.518 471.375 568.776 469.469 567.77 466.551L565.879 467.203L563.988 467.855C565.326 471.734 567.803 474.555 571.408 476.126L572.207 474.293ZM565.879 467.203L564.453 465.801C562.42 467.869 559.397 469.853 555.274 471.707L556.094 473.531L556.914 475.355C561.306 473.381 564.806 471.147 567.305 468.605L565.879 467.203ZM556.094 473.531L555.288 471.701C551.29 473.461 547.054 474.344 542.559 474.344V476.344V478.344C547.595 478.344 552.382 477.351 556.9 475.362L556.094 473.531ZM542.559 476.344V474.344C537.933 474.344 534.269 473.921 531.506 473.132L530.957 475.055L530.408 476.978C533.66 477.907 537.731 478.344 542.559 478.344V476.344ZM530.957 475.055L531.483 473.125C528.688 472.363 526.165 471.189 523.899 469.606L522.754 471.246L521.609 472.886C524.265 474.741 527.21 476.106 530.431 476.984L530.957 475.055ZM522.754 471.246L523.899 469.606C521.745 468.102 520.004 466.033 518.693 463.339L516.895 464.215L515.096 465.09C516.675 468.334 518.841 470.953 521.609 472.886L522.754 471.246ZM516.895 464.215L518.706 463.368C517.446 460.673 516.785 457.476 516.785 453.727H514.785H512.785C512.785 457.946 513.53 461.741 515.083 465.062L516.895 464.215ZM514.785 453.727H516.785C516.785 449.948 517.359 446.181 518.514 442.419L516.602 441.832L514.69 441.245C513.422 445.374 512.785 449.536 512.785 453.727H514.785ZM516.602 441.832L518.514 442.419C519.66 438.683 521.421 435.1 523.81 431.666L522.168 430.523L520.526 429.381C517.915 433.135 515.965 437.09 514.69 441.245L516.602 441.832ZM522.168 430.523L523.807 431.669C526.233 428.198 529.125 425.138 532.489 422.484L531.25 420.914L530.011 419.344C526.344 422.237 523.181 425.583 520.529 429.378L522.168 430.523ZM531.25 420.914L532.489 422.484C535.791 419.879 539.832 417.773 544.647 416.193L544.023 414.293L543.4 412.393C538.215 414.094 533.74 416.402 530.011 419.344L531.25 420.914ZM544.023 414.293L544.643 416.195C549.464 414.625 554.664 413.832 560.254 413.832V411.832V409.832C554.281 409.832 548.661 410.68 543.404 412.391L544.023 414.293ZM560.254 411.832V413.832C569.405 413.832 576.849 416.105 582.724 420.521L583.926 418.922L585.127 417.323C578.425 412.286 570.088 409.832 560.254 409.832V411.832ZM583.926 418.922L585.901 419.233C588.083 405.364 589.207 396.12 589.207 391.676H587.207H585.207C585.207 395.748 584.143 404.668 581.95 418.611L583.926 418.922ZM587.207 391.676L589.206 391.607L589.147 389.908L587.148 389.977L585.15 390.045L585.208 391.745L587.207 391.676ZM587.148 389.977H589.148C589.148 389.826 589.18 389.786 589.183 389.781C589.192 389.766 589.254 389.676 589.486 389.557C590.007 389.288 591.044 389.047 592.832 389.047V387.047V385.047C590.831 385.047 589.026 385.294 587.653 386.002C586.937 386.37 586.289 386.891 585.824 387.609C585.354 388.336 585.148 389.151 585.148 389.977H587.148ZM592.832 387.047L592.738 389.045L618.988 390.275L619.082 388.277L619.176 386.28L592.926 385.049L592.832 387.047ZM619.082 388.277V390.277C619.568 390.277 619.743 390.41 619.846 390.521L621.309 389.156L622.771 387.792C621.781 386.731 620.471 386.277 619.082 386.277V388.277ZM621.309 389.156L619.894 390.57C620.107 390.783 620.129 390.914 620.129 391.031H622.129H624.129C624.129 389.742 623.604 388.623 622.723 387.742L621.309 389.156ZM622.129 391.031H620.129C620.129 393.809 619.38 398.251 617.775 404.477C616.181 410.659 613.782 418.458 610.568 427.886L612.461 428.531L614.354 429.177C617.585 419.698 620.02 411.794 621.649 405.476C623.266 399.202 624.129 394.347 624.129 391.031H622.129ZM612.461 428.531L610.568 427.885C607.344 437.324 604.92 444.649 603.3 449.851C602.491 452.45 601.877 454.537 601.464 456.101C601.257 456.882 601.095 457.552 600.984 458.1C600.881 458.609 600.793 459.14 600.793 459.586H602.793H604.793C604.793 459.601 604.793 459.554 604.812 459.417C604.829 459.289 604.859 459.118 604.904 458.897C604.994 458.454 605.134 457.866 605.331 457.124C605.723 455.641 606.317 453.617 607.12 451.04C608.723 445.89 611.133 438.606 614.354 429.178L612.461 428.531ZM602.793 459.586H600.793C600.793 461.497 601.037 463.308 601.878 464.602L603.555 463.512L605.232 462.422C605.057 462.153 604.793 461.347 604.793 459.586H602.793ZM603.555 463.512L601.916 464.659C603.049 466.277 605.048 466.684 606.895 466.684V464.684V462.684C606.193 462.684 605.736 462.6 605.462 462.503C605.205 462.413 605.175 462.339 605.193 462.365L603.555 463.512ZM606.895 464.684V466.684C608.95 466.684 612.134 465.865 616.215 464.466L615.566 462.574L614.918 460.682C610.796 462.096 608.199 462.684 606.895 462.684V464.684ZM615.566 462.574L616.215 464.466C620.343 463.051 623.535 461.784 625.732 460.665L624.824 458.883L623.916 457.101C621.973 458.091 618.992 459.285 614.918 460.682L615.566 462.574ZM624.824 458.883L625.732 460.665C626.744 460.15 627.53 459.784 628.106 459.551C628.394 459.435 628.603 459.363 628.744 459.323C628.911 459.276 628.887 459.301 628.75 459.301V457.301V455.301C628.04 455.301 627.241 455.587 626.611 455.841C625.879 456.136 624.975 456.561 623.916 457.101L624.824 458.883ZM556.152 461.461V463.461C564.743 463.461 571.376 456.833 576.383 445.388L574.551 444.586L572.718 443.784C567.882 454.839 562.249 459.461 556.152 459.461V461.461ZM574.551 444.586L576.324 445.511C579.221 439.959 580.77 434.867 580.77 430.289H578.77H576.77C576.77 433.992 575.506 438.432 572.778 443.661L574.551 444.586ZM578.77 430.289H580.77C580.77 427.721 580.149 425.434 578.613 423.734L577.129 425.074L575.645 426.415C576.297 427.136 576.77 428.326 576.77 430.289H578.77ZM577.129 425.074L578.637 423.761C576.962 421.838 574.013 421.258 570.742 421.258V423.258V425.258C573.877 425.258 575.186 425.889 575.621 426.388L577.129 425.074ZM570.742 423.258V421.258C566.951 421.258 563.046 423.029 559.079 426.137L560.312 427.711L561.546 429.285C565.157 426.456 568.205 425.258 570.742 425.258V423.258ZM560.312 427.711L559.079 426.137C555.054 429.29 551.808 433.246 549.34 437.977L551.113 438.902L552.886 439.827C555.106 435.574 557.993 432.069 561.546 429.285L560.312 427.711ZM551.113 438.902L549.337 437.983C546.942 442.611 545.656 446.935 545.656 450.914H547.656H549.656C549.656 447.783 550.675 444.1 552.889 439.822L551.113 438.902ZM547.656 450.914H545.656C545.656 454.684 546.489 457.885 548.505 460.153L550 458.824L551.495 457.495C550.386 456.248 549.656 454.176 549.656 450.914H547.656ZM550 458.824L548.505 460.153C550.48 462.375 553.093 463.461 556.152 463.461V461.461V459.461C554.133 459.461 552.645 458.79 551.495 457.495L550 458.824ZM718.691 462.75L719.688 464.484L719.699 464.478L718.691 462.75ZM711.836 466.207L712.646 468.036L712.657 468.031L712.667 468.026L711.836 466.207ZM700.527 470.543L699.867 468.655L699.867 468.655L700.527 470.543ZM630.977 430.875L629.427 429.61L629.426 429.611L630.977 430.875ZM651.191 416.754L651.909 418.621L651.916 418.618L651.191 416.754ZM700.645 416.461L699.532 418.123L699.538 418.127L700.645 416.461ZM700.938 442.77L699.698 441.2L699.691 441.205L700.938 442.77ZM683.301 450.621L683.754 452.569L683.757 452.568L683.301 450.621ZM657.93 454.254L657.783 452.259L655.729 452.411L655.94 454.459L657.93 454.254ZM670.938 465.562L670.575 467.529L670.589 467.532L670.603 467.534L670.938 465.562ZM717.051 457.828L717.66 459.733L717.672 459.729L717.683 459.725L717.051 457.828ZM657.988 447.809L655.995 447.648L655.766 450.496L658.52 449.737L657.988 447.809ZM668.418 422.906L667.176 421.339L667.169 421.345L667.161 421.35L668.418 422.906ZM663.262 429.352L665.022 430.301L665.026 430.294L665.029 430.287L663.262 429.352ZM719.453 457.301V459.301C719.546 459.301 719.616 459.306 719.667 459.313C719.717 459.32 719.743 459.327 719.751 459.33C719.757 459.332 719.744 459.328 719.718 459.313C719.691 459.298 719.656 459.274 719.619 459.239C719.582 459.204 719.552 459.167 719.528 459.13C719.505 459.094 719.494 459.067 719.49 459.055C719.486 459.044 719.49 459.051 719.494 459.081C719.499 459.111 719.504 459.161 719.504 459.234H721.504H723.504C723.504 458.25 723.237 457.153 722.363 456.329C721.511 455.526 720.417 455.301 719.453 455.301V457.301ZM721.504 459.234H719.504C719.504 459.366 719.404 460.019 717.684 461.022L718.691 462.75L719.699 464.478C721.728 463.294 723.504 461.603 723.504 459.234H721.504ZM718.691 462.75L717.695 461.016C715.93 462.03 713.704 463.154 711.004 464.388L711.836 466.207L712.667 468.026C715.437 466.76 717.781 465.579 719.688 464.484L718.691 462.75ZM711.836 466.207L711.026 464.378C708.363 465.558 704.651 466.983 699.867 468.655L700.527 470.543L701.187 472.431C706.013 470.744 709.84 469.278 712.646 468.036L711.836 466.207ZM700.527 470.543L699.867 468.655C689.06 472.436 676.808 474.344 663.086 474.344V476.344V478.344C677.176 478.344 689.885 476.385 701.188 472.431L700.527 470.543ZM663.086 476.344V474.344C650.023 474.344 640.563 472.322 634.427 468.547C628.451 464.869 625.477 459.44 625.477 451.969H623.477H621.477C621.477 460.748 625.104 467.506 632.331 471.953C639.398 476.303 649.743 478.344 663.086 478.344V476.344ZM623.477 451.969H625.477C625.477 444.498 627.818 437.914 632.527 432.139L630.977 430.875L629.426 429.611C624.135 436.102 621.477 443.58 621.477 451.969H623.477ZM630.977 430.875L632.526 432.14C637.316 426.272 643.752 421.755 651.909 418.621L651.191 416.754L650.474 414.887C641.756 418.237 634.715 423.134 629.427 429.61L630.977 430.875ZM651.191 416.754L651.916 418.618C660.101 415.435 669.051 413.832 678.789 413.832V411.832V409.832C668.605 409.832 659.157 411.51 650.467 414.89L651.191 416.754ZM678.789 411.832V413.832C688.628 413.832 695.423 415.372 699.532 418.123L700.645 416.461L701.757 414.799C696.647 411.378 688.872 409.832 678.789 409.832V411.832ZM700.645 416.461L699.538 418.127C703.652 420.858 705.617 424.483 705.617 429.176H707.617H709.617C709.617 423.087 706.934 418.236 701.751 414.795L700.645 416.461ZM707.617 429.176H705.617C705.617 434.094 703.684 438.053 699.698 441.2L700.938 442.77L702.177 444.339C707.098 440.454 709.617 435.351 709.617 429.176H707.617ZM700.938 442.77L699.691 441.205C695.573 444.485 689.993 447.001 682.845 448.674L683.301 450.621L683.757 452.568C691.296 450.804 697.473 448.085 702.184 444.334L700.938 442.77ZM683.301 450.621L682.847 448.673C675.587 450.363 667.236 451.562 657.783 452.259L657.93 454.254L658.077 456.248C667.686 455.54 676.249 454.316 683.754 452.569L683.301 450.621ZM657.93 454.254L655.94 454.459C656.301 457.958 657.763 460.893 660.338 463.131C662.867 465.33 666.341 466.748 670.575 467.529L670.938 465.562L671.3 463.596C667.487 462.892 664.77 461.684 662.963 460.113C661.202 458.582 660.183 456.604 659.919 454.049L657.93 454.254ZM670.938 465.562L670.603 467.534C672.794 467.906 675.094 468.09 677.5 468.09V466.09V464.09C675.297 464.09 673.222 463.922 671.272 463.591L670.938 465.562ZM677.5 466.09V468.09C686.963 468.09 700.39 465.255 717.66 459.733L717.051 457.828L716.442 455.923C699.259 461.417 686.318 464.09 677.5 464.09V466.09ZM717.051 457.828L717.683 459.725C718.699 459.387 719.245 459.301 719.453 459.301V457.301V455.301C718.568 455.301 717.511 455.566 716.418 455.931L717.051 457.828ZM657.988 447.809L658.52 449.737C665.556 447.796 671.256 444.785 675.502 440.624L674.102 439.195L672.702 437.767C669.057 441.34 664.015 444.071 657.456 445.881L657.988 447.809ZM674.102 439.195L675.502 440.624C679.826 436.385 682.02 431.204 682.02 425.191H680.02H678.02C678.02 430.117 676.268 434.272 672.702 437.767L674.102 439.195ZM680.02 425.191H682.02C682.02 423.27 681.374 421.552 679.965 420.26L678.613 421.734L677.262 423.209C677.728 423.636 678.02 424.222 678.02 425.191H680.02ZM678.613 421.734L679.965 420.26C678.51 418.927 676.504 418.445 674.336 418.445V420.445V422.445C675.996 422.445 676.841 422.823 677.262 423.209L678.613 421.734ZM674.336 420.445V418.445C671.858 418.445 669.458 419.53 667.176 421.339L668.418 422.906L669.66 424.474C671.519 423.001 673.064 422.445 674.336 422.445V420.445ZM668.418 422.906L667.161 421.35C664.89 423.185 663.008 425.556 661.494 428.416L663.262 429.352L665.029 430.287C666.328 427.834 667.883 425.909 669.675 424.462L668.418 422.906ZM663.262 429.352L661.501 428.403C658.39 434.175 656.562 440.6 655.995 447.648L657.988 447.809L659.982 447.969C660.509 441.423 662.196 435.543 665.022 430.301L663.262 429.352ZM771.719 422.203L773.512 421.317L773.508 421.309L771.719 422.203ZM775.586 431.402L773.686 432.027L774.69 435.084L776.987 432.83L775.586 431.402ZM792.051 416.695L793.274 418.278L793.276 418.276L792.051 416.695ZM808.75 416.168L806.944 417.028L806.95 417.041L806.957 417.054L808.75 416.168ZM810.215 429.996L808.53 428.918L808.525 428.927L808.519 428.936L810.215 429.996ZM807.578 431.812L807.97 433.774L808.002 433.767L808.033 433.76L807.578 431.812ZM789.707 433.746L790.312 435.653L790.319 435.65L790.326 435.648L789.707 433.746ZM778.809 439.898L777.599 438.306L776.411 439.208L776.937 440.604L778.809 439.898ZM789.59 462.105L791.167 460.875L791.155 460.861L791.144 460.846L789.59 462.105ZM818.945 463.16L820.263 464.665L820.27 464.659L818.945 463.16ZM752.266 469.195L753.834 467.955L753.827 467.945L753.819 467.936L752.266 469.195ZM745.586 457.418L747.426 456.635L746.299 453.983L744.209 455.968L745.586 457.418ZM710.488 471.598L708.712 472.518L708.719 472.531L708.726 472.543L710.488 471.598ZM710.605 456.188L710.783 458.18L710.809 458.177L710.835 458.174L710.605 456.188ZM716.113 455.895L716.055 453.895L716.054 453.895L716.113 455.895ZM724.375 455.484L724.238 453.489L724.236 453.489L724.375 455.484ZM742.363 448.922L743.571 450.516L744.714 449.65L744.261 448.289L742.363 448.922ZM740.43 443.062L738.522 443.662L738.526 443.675L738.53 443.687L740.43 443.062ZM738.438 436.969L740.323 436.303L740.323 436.301L738.438 436.969ZM731.582 424.898L730.634 426.659L730.648 426.667L730.661 426.674L731.582 424.898ZM720.625 418.336L721.589 420.088L721.597 420.084L721.606 420.079L720.625 418.336ZM733.34 413.766L732.875 411.82L732.871 411.821L733.34 413.766ZM755.781 412.125L755.57 414.114L755.591 414.116L755.612 414.118L755.781 412.125ZM760.703 413.062L760.086 414.965L760.11 414.973L760.133 414.98L760.703 413.062ZM764.512 414.469L763.669 416.283L763.697 416.295L763.724 416.307L764.512 414.469ZM767.5 416.52L766.086 417.934L766.101 417.949L766.118 417.965L767.5 416.52ZM769.785 419.039L768.194 420.251L768.209 420.27L768.223 420.288L769.785 419.039ZM771.719 422.203L769.926 423.089C771.576 426.428 772.824 429.405 773.686 432.027L775.586 431.402L777.486 430.778C776.551 427.931 775.221 424.775 773.512 421.317L771.719 422.203ZM775.586 431.402L776.987 432.83C783.284 426.649 788.711 421.806 793.274 418.278L792.051 416.695L790.828 415.113C786.094 418.772 780.544 423.734 774.185 429.975L775.586 431.402ZM792.051 416.695L793.276 418.276C797.924 414.674 801.228 413.246 803.359 413.246V411.246V409.246C799.787 409.246 795.552 411.451 790.826 415.114L792.051 416.695ZM803.359 411.246V413.246C804.142 413.246 805.442 413.872 806.944 417.028L808.75 416.168L810.556 415.308C808.933 411.901 806.639 409.246 803.359 409.246V411.246ZM808.75 416.168L806.957 417.054C808.401 419.978 809.152 423.397 809.152 427.359H811.152H813.152C813.152 422.884 812.302 418.842 810.543 415.282L808.75 416.168ZM811.152 427.359H809.152C809.152 427.616 809.043 428.117 808.53 428.918L810.215 429.996L811.899 431.074C812.637 429.922 813.152 428.666 813.152 427.359H811.152ZM810.215 429.996L808.519 428.936C808.239 429.383 807.831 429.7 807.124 429.865L807.578 431.812L808.033 433.76C809.669 433.378 811.019 432.484 811.911 431.056L810.215 429.996ZM807.578 431.812L807.186 429.851C806.243 430.04 803.986 430.164 800.195 430.164V432.164V434.164C803.905 434.164 806.57 434.054 807.97 433.774L807.578 431.812ZM800.195 432.164V430.164C796.256 430.164 792.549 430.718 789.088 431.844L789.707 433.746L790.326 435.648C793.349 434.664 796.635 434.164 800.195 434.164V432.164ZM789.707 433.746L789.103 431.84C785.599 432.951 781.759 435.146 777.599 438.306L778.809 439.898L780.018 441.491C783.983 438.479 787.409 436.573 790.312 435.653L789.707 433.746ZM778.809 439.898L776.937 440.604C781.113 451.687 784.801 459.374 788.036 463.365L789.59 462.105L791.144 460.846C788.363 457.415 784.864 450.297 780.68 439.193L778.809 439.898ZM789.59 462.105L788.013 463.336C789.919 465.78 792.515 467.035 795.625 467.035V465.035V463.035C793.735 463.035 792.307 462.337 791.167 460.875L789.59 462.105ZM795.625 465.035V467.035C798.435 467.035 801.931 466.297 806.037 464.942L805.41 463.043L804.783 461.144C800.842 462.445 797.815 463.035 795.625 463.035V465.035ZM805.41 463.043L806.037 464.942C810.114 463.596 813.338 462.254 815.629 460.896L814.609 459.176L813.59 457.455C811.662 458.597 808.753 459.833 804.783 461.144L805.41 463.043ZM814.609 459.176L815.629 460.896C816.644 460.295 817.454 459.874 818.075 459.609C818.749 459.322 819.013 459.301 819.004 459.301V457.301V455.301C818.175 455.301 817.296 455.592 816.505 455.93C815.661 456.29 814.684 456.807 813.59 457.455L814.609 459.176ZM819.004 457.301V459.301C819.274 459.301 819.435 459.331 819.517 459.355C819.592 459.377 819.576 459.387 819.528 459.343C819.473 459.296 819.446 459.243 819.44 459.228C819.439 459.225 819.465 459.292 819.465 459.469H821.465H823.465C823.465 458.367 823.141 457.196 822.172 456.342C821.251 455.531 820.075 455.301 819.004 455.301V457.301ZM821.465 459.469H819.465C819.465 459.394 819.488 459.55 819.183 459.997C818.891 460.425 818.392 460.98 817.621 461.661L818.945 463.16L820.27 464.659C821.178 463.856 821.939 463.054 822.487 462.252C823.022 461.467 823.465 460.52 823.465 459.469H821.465ZM818.945 463.16L817.628 461.656C812.163 466.442 806.137 469.854 799.54 471.915L800.137 473.824L800.733 475.733C807.886 473.498 814.399 469.801 820.263 464.665L818.945 463.16ZM800.137 473.824L799.54 471.915C792.889 473.994 785.418 475.047 777.109 475.047V477.047V479.047C785.753 479.047 793.635 477.952 800.733 475.733L800.137 473.824ZM777.109 477.047V475.047C764.808 475.047 757.37 472.425 753.834 467.955L752.266 469.195L750.697 470.436C755.442 476.435 764.567 479.047 777.109 479.047V477.047ZM752.266 469.195L753.819 467.936C751.632 465.239 749.492 461.494 747.426 456.635L745.586 457.418L743.745 458.201C745.898 463.263 748.211 467.371 750.712 470.455L752.266 469.195ZM745.586 457.418L744.209 455.968C738.079 461.787 732.666 466.347 727.966 469.672L729.121 471.305L730.276 472.938C735.185 469.465 740.749 464.767 746.963 458.868L745.586 457.418ZM729.121 471.305L727.966 469.672C723.279 472.987 719.595 474.402 716.816 474.402V476.402V478.402C720.834 478.402 725.353 476.419 730.276 472.938L729.121 471.305ZM716.816 476.402V474.402C715.364 474.402 713.798 473.535 712.251 470.652L710.488 471.598L708.726 472.543C710.617 476.067 713.269 478.402 716.816 478.402V476.402ZM710.488 471.598L712.264 470.678C710.722 467.702 709.969 464.676 709.969 461.578H707.969H705.969C705.969 465.356 706.895 469.009 708.712 472.518L710.488 471.598ZM707.969 461.578H709.969C709.969 459.975 710.183 459.026 710.425 458.531C710.605 458.162 710.705 458.187 710.783 458.18L710.605 456.188L710.428 454.195C708.748 454.345 707.53 455.346 706.831 456.774C706.194 458.076 705.969 459.744 705.969 461.578H707.969ZM710.605 456.188L710.835 458.174C711.755 458.068 713.511 457.972 716.172 457.894L716.113 455.895L716.054 453.895C713.403 453.973 711.488 454.072 710.376 454.201L710.605 456.188ZM716.113 455.895L716.171 457.894C718.895 457.815 721.675 457.677 724.514 457.48L724.375 455.484L724.236 453.489C721.45 453.683 718.723 453.818 716.055 453.895L716.113 455.895ZM724.375 455.484L724.512 457.48C731.712 456.986 738.086 454.672 743.571 450.516L742.363 448.922L741.156 447.328C736.328 450.985 730.71 453.045 724.238 453.489L724.375 455.484ZM742.363 448.922L744.261 448.289C743.872 447.122 743.228 445.172 742.33 442.438L740.43 443.062L738.53 443.687C739.428 446.421 740.074 448.378 740.466 449.554L742.363 448.922ZM740.43 443.062L742.338 442.463C741.477 439.724 740.804 437.665 740.323 436.303L738.438 436.969L736.552 437.634C737.008 438.928 737.664 440.932 738.522 443.662L740.43 443.062ZM738.438 436.969L740.323 436.301C739.073 432.771 737.841 429.904 736.617 427.749C735.435 425.667 734.097 423.95 732.503 423.123L731.582 424.898L730.661 426.674C731.176 426.941 732.036 427.783 733.139 429.724C734.2 431.592 735.341 434.213 736.552 437.636L738.438 436.969ZM731.582 424.898L732.53 423.137C731.091 422.362 729.24 422.078 727.188 422.078V424.078V426.078C728.963 426.078 730.042 426.341 730.634 426.659L731.582 424.898ZM727.188 424.078V422.078C725.15 422.078 723.149 422.265 721.186 422.641L721.562 424.605L721.939 426.57C723.648 426.243 725.397 426.078 727.188 426.078V424.078ZM721.562 424.605L721.186 422.641C720.279 422.815 719.563 422.942 719.029 423.025C718.762 423.066 718.553 423.095 718.395 423.112C718.223 423.132 718.159 423.133 718.164 423.133V425.133V427.133C718.554 427.133 719.088 427.063 719.643 426.977C720.242 426.884 721.01 426.748 721.939 426.57L721.562 424.605ZM718.164 425.133V423.133C717.945 423.133 717.831 423.106 717.792 423.094C717.762 423.084 717.806 423.093 717.87 423.154C717.899 423.181 717.923 423.211 717.94 423.239C717.949 423.252 717.954 423.263 717.958 423.271C717.962 423.278 717.963 423.283 717.963 423.282C717.962 423.279 717.938 423.205 717.938 423.023H715.938H713.938C713.938 424.063 714.217 425.203 715.119 426.057C716 426.892 717.14 427.133 718.164 427.133V425.133ZM715.938 423.023H717.938C717.938 423.086 717.91 422.825 718.524 422.211C719.115 421.619 720.104 420.905 721.589 420.088L720.625 418.336L719.661 416.584C718.021 417.485 716.666 418.412 715.695 419.383C714.747 420.331 713.938 421.555 713.938 423.023H715.938ZM720.625 418.336L721.606 420.079C724.508 418.446 728.551 416.976 733.808 415.71L733.34 413.766L732.871 411.821C727.426 413.133 722.992 414.71 719.644 416.593L720.625 418.336ZM733.34 413.766L733.805 415.711C739.103 414.444 743.567 413.832 747.227 413.832V411.832V409.832C743.151 409.832 738.358 410.509 732.875 411.82L733.34 413.766ZM747.227 411.832V413.832C751.082 413.832 753.845 413.93 755.57 414.114L755.781 412.125L755.993 410.136C754.046 409.929 751.105 409.832 747.227 409.832V411.832ZM755.781 412.125L755.612 414.118C757.326 414.264 758.813 414.552 760.086 414.965L760.703 413.062L761.32 411.16C759.703 410.636 757.908 410.299 755.951 410.132L755.781 412.125ZM760.703 413.062L760.133 414.98C761.507 415.388 762.682 415.825 763.669 416.283L764.512 414.469L765.354 412.655C764.153 412.097 762.79 411.596 761.273 411.145L760.703 413.062ZM764.512 414.469L763.724 416.307C764.568 416.669 765.355 417.203 766.086 417.934L767.5 416.52L768.914 415.105C767.848 414.039 766.643 413.206 765.3 412.63L764.512 414.469ZM767.5 416.52L766.118 417.965C766.955 418.766 767.644 419.529 768.194 420.251L769.785 419.039L771.376 417.827C770.676 416.909 769.842 415.992 768.882 415.074L767.5 416.52ZM769.785 419.039L768.223 420.288C768.729 420.921 769.302 421.841 769.93 423.098L771.719 422.203L773.508 421.309C772.808 419.909 772.091 418.72 771.347 417.79L769.785 419.039Z" fill="black" mask="url(#path-2-outside-1_41_30)"/>
<path d="M458.864 660.482L358.548 896.592L327.712 883.49C327.712 883.49 327.709 883.496 326.734 885.791C327.712 883.49 327.711 883.49 327.711 883.49L296.875 870.389L397.191 634.279L458.864 660.482Z" fill="#262626" stroke="black" stroke-width="5"/>
<path d="M426 619.5C445.293 619.5 460.5 633.607 460.5 650.5C460.5 667.393 445.293 681.5 426 681.5C406.707 681.5 391.5 667.393 391.5 650.5C391.5 633.607 406.707 619.5 426 619.5Z" fill="#605447" stroke="black" stroke-width="5"/>
<path d="M237.5 397.5C262.482 397.5 282.5 416.654 282.5 440C282.5 463.346 262.482 482.5 237.5 482.5C212.518 482.5 192.5 463.346 192.5 440C192.5 416.654 212.518 397.5 237.5 397.5Z" fill="#322108" stroke="black" stroke-width="5"/>
<path d="M278.268 428.071C275.527 430.704 267.153 423.474 257 417C246.847 410.526 236.701 405.801 239.441 403.168C242.182 400.534 255.122 401.602 265.275 408.076C275.428 414.55 281.008 425.438 278.268 428.071Z" fill="#4E3715"/>
<ellipse cx="230" cy="403.5" rx="6" ry="3.5" fill="#4E3715"/>
<path d="M197 452C199.573 449.265 208.389 456.166 218.934 462.243C229.479 468.321 239.909 472.652 237.336 475.387C234.764 478.122 221.772 477.551 211.227 471.473C200.682 465.396 194.428 454.735 197 452Z" fill="#5F441C"/>
<ellipse cx="384.85" cy="791.706" rx="3.24168" ry="79.1091" transform="rotate(23.7677 384.85 791.706)" fill="#585858"/>
<defs>
<filter id="filter0_i_41_30" x="63.3711" y="379.656" width="760.094" height="103.391" filterUnits="userSpaceOnUse" color-interpolation-filters="sRGB">
<feFlood flood-opacity="0" result="BackgroundImageFix"/>
<feBlend mode="normal" in="SourceGraphic" in2="BackgroundImageFix" result="shape"/>
<feColorMatrix in="SourceAlpha" type="matrix" values="0 0 0 0 0 0 0 0 0 0 0 0 0 0 0 0 0 0 127 0" result="hardAlpha"/>
<feOffset dy="4"/>
<feGaussianBlur stdDeviation="2"/>
<feComposite in2="hardAlpha" operator="arithmetic" k2="-1" k3="1"/>
<feColorMatrix type="matrix" values="0 0 0 0 0 0 0 0 0 0 0 0 0 0 0 0 0 0 0.25 0"/>
<feBlend mode="normal" in2="shape" result="effect1_innerShadow_41_30"/>
</filter>
</defs>
</svg>
